<svg width="825.412" height="89.087" viewBox="0 0 825.412 89.087" xmlns="http://www.w3.org/2000/svg">
    <g id="svgGroup" stroke-linecap="round" fill-rule="evenodd" font-size="9pt" stroke="#000" stroke-width="0.25mm" fill="#000"
       style="stroke:#000;stroke-width:0.25mm;fill:#000">
        <path d="M 59.952 43.062 Q 59.552 48.662 58.602 54.212 Q 57.652 59.762 57.352 65.362 A 7.271 7.271 0 0 1 56.925 67.687 A 5.965 5.965 0 0 1 54.652 70.562 Q 53.152 71.662 51.652 72.812 Q 50.152 73.962 48.352 74.462 Q 47.052 74.762 46.402 74.362 Q 45.875 74.037 45.446 72.989 A 8.491 8.491 0 0 1 45.252 72.462 A 11.946 11.946 0 0 1 44.895 69.553 A 12.565 12.565 0 0 1 44.952 68.362 Q 45.552 63.562 45.852 58.662 L 46.452 48.862 A 127.031 127.031 0 0 0 46.709 40.768 A 128.839 128.839 0 0 0 46.702 39.412 Q 46.652 34.662 45.952 30.062 A 25.552 25.552 0 0 1 45.723 26.682 A 23.583 23.583 0 0 1 45.852 24.212 Q 46.152 21.362 46.952 18.562 Q 47.252 17.562 48.152 17.562 Q 48.852 17.662 49.502 17.712 Q 50.152 17.762 50.752 17.962 A 5.305 5.305 0 0 0 52 18.249 Q 52.758 18.327 53.502 18.162 A 18.994 18.994 0 0 1 55.989 17.775 A 17.468 17.468 0 0 1 56.152 17.762 Q 57.152 17.562 57.452 16.162 Q 57.652 15.062 57.902 13.962 Q 58.152 12.862 58.252 11.762 Q 58.452 10.062 59.852 9.962 A 41.261 41.261 0 0 1 64.541 9.695 A 41.968 41.968 0 0 1 66.902 9.762 Q 70.452 9.962 73.852 10.562 A 2.518 2.518 0 0 1 74.546 10.775 A 1.802 1.802 0 0 1 75.452 11.762 Q 76.204 13.172 77.576 12.549 A 3.11 3.11 0 0 0 77.752 12.462 Q 78.552 11.962 79.452 11.562 Q 80.352 11.162 81.152 10.562 A 13.377 13.377 0 0 1 83.771 9.222 A 11.174 11.174 0 0 1 85.852 8.662 A 16.854 16.854 0 0 1 88.627 8.433 A 17.818 17.818 0 0 1 90.752 8.562 A 8.054 8.054 0 0 1 93.502 9.419 A 7.265 7.265 0 0 1 95.602 11.112 A 20.746 20.746 0 0 1 98.245 15.034 A 23.898 23.898 0 0 1 98.752 16.062 Q 100.652 20.062 101.752 24.412 Q 102.852 28.762 103.352 33.462 Q 103.852 37.162 104.302 40.962 Q 104.752 44.762 104.952 48.562 Q 105.152 51.862 105.302 55.212 Q 105.452 58.562 105.852 61.862 Q 106.052 63.062 106.202 64.262 A 8.433 8.433 0 0 1 106.266 65.309 Q 106.266 65.974 106.166 66.669 A 10.397 10.397 0 0 1 106.152 66.762 A 2.692 2.692 0 0 1 106.128 67.138 Q 106.013 67.944 105.352 67.862 A 6.192 6.192 0 0 0 104.135 67.739 Q 102.783 67.739 101.502 68.362 Q 99.652 69.262 97.752 69.762 Q 97.052 69.962 96.402 70.212 Q 95.752 70.462 95.052 70.562 Q 93.577 70.758 93.649 69.118 A 3.79 3.79 0 0 1 93.652 69.062 A 46.736 46.736 0 0 0 93.915 64.114 A 46.692 46.692 0 0 0 93.702 59.662 Q 93.252 54.962 92.552 50.362 Q 92.152 47.462 91.652 44.662 Q 91.152 41.862 90.352 39.062 A 8.43 8.43 0 0 0 89.524 37.024 A 6.527 6.527 0 0 0 87.802 35.062 A 5.313 5.313 0 0 0 85.922 34.132 Q 84.876 33.861 83.716 34.051 A 6.384 6.384 0 0 0 83.652 34.062 A 2.731 2.731 0 0 0 83.098 34.199 Q 81.946 34.632 82.402 36.062 A 4.432 4.432 0 0 0 82.552 36.462 Q 83.652 39.262 84.402 42.212 Q 85.152 45.162 85.752 48.162 Q 86.552 52.762 87.352 57.312 Q 88.152 61.862 89.152 66.262 A 3.148 3.148 0 0 1 89.218 66.6 Q 89.399 67.927 88.152 68.462 Q 87.452 68.662 86.852 69.062 Q 85.152 70.662 83.152 71.212 Q 81.152 71.762 79.252 72.562 Q 78.364 72.956 78.011 72.426 A 0.859 0.859 0 0 1 78.002 72.412 A 2.799 2.799 0 0 1 77.694 71.735 Q 77.597 71.424 77.552 71.062 Q 77.152 66.962 76.952 62.962 Q 76.752 57.362 76.052 51.812 Q 75.352 46.262 73.852 40.962 A 0.316 0.316 0 0 0 73.845 40.907 Q 73.82 40.777 73.706 40.426 A 20.867 20.867 0 0 0 73.652 40.262 A 2.94 2.94 0 0 0 73.427 39.59 A 3.646 3.646 0 0 0 73.252 39.262 A 1.102 1.102 0 0 0 73.093 39.053 Q 72.842 38.799 72.488 38.855 A 0.916 0.916 0 0 0 72.452 38.862 Q 71.758 38.961 71.801 39.601 A 1.193 1.193 0 0 0 71.802 39.612 A 18.908 18.908 0 0 1 71.836 40.152 Q 71.852 40.48 71.852 40.762 Q 71.452 47.062 71.852 53.262 Q 72.252 59.462 72.952 65.662 L 72.952 66.312 A 2.157 2.157 0 0 0 72.995 66.749 A 1.865 1.865 0 0 0 73.052 66.962 A 4.042 4.042 0 0 1 73.148 67.405 Q 73.433 69.245 71.552 69.962 Q 70.452 70.262 69.302 70.612 Q 68.152 70.962 67.052 71.362 A 17.703 17.703 0 0 0 65.824 71.718 A 20.237 20.237 0 0 0 65.402 71.862 A 90.2 90.2 0 0 0 63.755 72.46 L 63.752 72.462 A 2.697 2.697 0 0 1 63.513 72.525 Q 62.169 72.813 62.351 71.065 A 5.352 5.352 0 0 1 62.352 71.062 A 58.954 58.954 0 0 0 62.475 67.265 A 56.572 56.572 0 0 0 61.852 58.862 Q 60.952 52.862 60.352 46.762 A 11.061 11.061 0 0 1 60.285 45.539 A 11.943 11.943 0 0 1 60.302 44.912 A 4.004 4.004 0 0 0 60.307 44.701 A 3.998 3.998 0 0 0 59.952 43.062 Z M 69.152 37.712 A 3.324 3.324 0 0 0 68.429 38.457 Q 67.358 39.943 67.052 43.162 A 16.615 16.615 0 0 0 67.035 43.916 Q 67.035 45.853 67.452 48.312 Q 67.952 51.262 68.152 54.362 Q 68.352 57.662 68.552 60.912 Q 68.752 64.162 68.752 67.362 Q 68.752 69.962 66.552 70.362 Q 66.052 70.462 65.452 70.662 Q 64.852 70.862 64.352 71.062 A 2.689 2.689 0 0 1 64.288 71.092 Q 63.219 71.592 63.334 70.316 A 3.65 3.65 0 0 1 63.352 70.162 Q 63.552 65.162 62.952 60.262 Q 62.352 55.362 61.652 50.462 Q 61.452 48.562 61.352 46.712 Q 61.252 44.862 61.152 42.962 Q 61.052 41.562 60.802 40.312 Q 60.552 39.062 59.752 38.062 Q 59.652 37.762 59.552 37.312 Q 59.452 36.862 59.352 36.462 Q 58.752 32.662 57.502 29.162 Q 56.252 25.662 54.552 22.462 Q 54.152 21.762 53.702 20.962 Q 53.391 20.409 53.486 19.903 A 1.415 1.415 0 0 1 53.652 19.462 A 2.144 2.144 0 0 1 53.852 19.19 A 1.462 1.462 0 0 1 55.002 18.662 Q 55.852 18.662 56.552 18.762 A 4.165 4.165 0 0 1 56.815 18.77 Q 57.291 18.8 57.81 18.938 A 7.372 7.372 0 0 1 58.752 19.262 Q 59.952 19.662 61.152 20.112 Q 62.352 20.562 63.552 21.062 Q 65.465 21.699 67.126 20.932 A 5.676 5.676 0 0 0 68.452 20.062 A 19.544 19.544 0 0 1 69.069 19.512 A 17.007 17.007 0 0 1 71.352 17.862 Q 72.852 16.962 74.352 15.962 A 2.298 2.298 0 0 1 74.413 15.915 Q 75.262 15.3 75.552 16.362 A 8.746 8.746 0 0 0 75.931 17.492 A 6.808 6.808 0 0 0 77.202 19.512 Q 78.352 20.762 79.452 21.962 A 5.883 5.883 0 0 1 79.492 22.002 Q 79.79 22.306 80.075 22.684 A 9.579 9.579 0 0 1 80.602 23.462 A 2.763 2.763 0 0 0 80.702 23.614 Q 81.223 24.353 81.952 24.262 Q 82.952 24.062 83.002 22.912 A 6.581 6.581 0 0 1 83.089 22.084 A 5.138 5.138 0 0 1 83.452 20.862 A 24.613 24.613 0 0 0 83.539 20.699 A 22.471 22.471 0 0 0 84.652 18.262 Q 85.152 16.962 85.752 15.662 A 10.941 10.941 0 0 1 86.189 14.821 Q 88.315 11.156 90.852 14.962 Q 93.152 18.362 94.802 22.212 A 25.252 25.252 0 0 1 95.485 23.989 A 27.865 27.865 0 0 1 96.852 30.562 Q 97.452 36.362 98.552 42.162 Q 99.652 47.962 100.052 53.862 Q 100.252 56.362 100.452 58.962 Q 100.652 61.562 100.952 64.062 A 32.032 32.032 0 0 1 101.021 64.658 Q 101.219 66.527 101.002 66.962 A 0.774 0.774 0 0 1 100.836 67.169 Q 100.471 67.514 99.44 67.972 A 19.718 19.718 0 0 1 98.752 68.262 A 58.235 58.235 0 0 0 98.578 68.337 A 53.109 53.109 0 0 0 97.402 68.862 Q 96.752 69.162 96.052 69.362 A 2.349 2.349 0 0 1 95.903 69.42 Q 94.84 69.792 94.68 68.552 A 3.852 3.852 0 0 1 94.652 68.062 L 94.652 63.012 Q 94.652 60.562 94.352 58.062 Q 93.952 55.362 93.652 52.712 Q 93.352 50.062 92.852 47.462 Q 92.452 45.162 92.102 42.962 Q 91.752 40.762 91.152 38.662 A 9.626 9.626 0 0 0 91.141 38.624 A 8.058 8.058 0 0 0 88.652 34.712 A 8.055 8.055 0 0 0 88.595 34.664 A 6.495 6.495 0 0 0 84.602 33.062 Q 83.054 32.993 81.578 33.965 A 8.492 8.492 0 0 0 80.252 35.062 A 3.908 3.908 0 0 0 79.875 35.462 Q 79.11 36.405 79.239 37.583 A 3.636 3.636 0 0 0 79.352 38.162 A 18.196 18.196 0 0 1 79.446 38.668 A 20.498 20.498 0 0 1 79.652 40.262 L 79.852 42.462 Q 80.652 47.962 81.352 53.512 Q 82.052 59.062 82.452 64.662 A 10.431 10.431 0 0 0 82.456 64.947 A 12.112 12.112 0 0 0 82.502 65.712 A 12.957 12.957 0 0 1 82.525 66 A 11.163 11.163 0 0 1 82.552 66.762 A 4.016 4.016 0 0 0 82.553 66.867 Q 82.562 67.214 82.631 67.597 A 6.779 6.779 0 0 0 82.802 68.312 A 2.206 2.206 0 0 1 82.839 68.454 Q 83.009 69.221 82.552 69.862 A 2.684 2.684 0 0 1 82.03 70.332 A 2.828 2.828 0 0 1 81.002 70.762 A 13.609 13.609 0 0 0 80.31 70.926 A 11.225 11.225 0 0 0 79.252 71.262 Q 78.652 71.562 78.502 71.012 A 5.477 5.477 0 0 1 78.438 70.752 Q 78.394 70.556 78.373 70.383 A 2.632 2.632 0 0 1 78.352 70.062 Q 78.252 68.262 78.152 66.512 Q 78.052 64.762 77.952 63.062 Q 77.852 57.362 77.102 51.762 Q 76.352 46.162 74.852 40.762 Q 74.652 39.962 74.252 39.212 A 3.349 3.349 0 0 0 74.239 39.188 A 2.812 2.812 0 0 0 73.152 38.062 Q 70.852 36.462 69.152 37.712 Z M 230.852 42.162 Q 229.952 43.162 229.652 44.412 Q 229.352 45.662 228.752 46.762 A 18.405 18.405 0 0 1 226.186 50.095 Q 224.008 52.301 221.353 53.153 A 11.111 11.111 0 0 1 219.202 53.612 Q 213.452 54.262 207.552 49.262 A 10.95 10.95 0 0 1 206.321 47.916 A 8.191 8.191 0 0 1 205.352 46.312 Q 204.652 44.762 204.352 42.862 A 41.017 41.017 0 0 1 203.807 36.263 A 38.465 38.465 0 0 1 203.852 34.412 Q 204.052 30.262 205.052 26.062 A 12.26 12.26 0 0 1 206.425 22.493 Q 208.354 19.248 212.29 18.267 A 12.648 12.648 0 0 1 212.752 18.162 Q 216.252 17.362 219.752 17.262 Q 223.252 17.162 226.752 17.662 Q 228.541 17.93 229.69 16.677 A 4.152 4.152 0 0 0 229.952 16.362 Q 231.052 14.962 232.302 13.762 Q 233.552 12.562 234.852 11.462 Q 236.252 10.362 237.652 11.362 Q 238.552 12.062 239.552 12.712 Q 240.552 13.362 241.352 14.262 Q 243.252 16.262 245.252 18.262 Q 247.252 20.262 248.802 22.612 A 11.253 11.253 0 0 1 250.382 26.417 A 14.236 14.236 0 0 1 250.652 28.162 Q 251.252 34.262 250.652 40.312 Q 250.052 46.362 247.552 52.062 Q 245.652 56.362 243.002 60.362 Q 240.352 64.362 237.752 68.262 Q 236.752 69.762 235.302 70.762 Q 233.852 71.762 232.352 72.562 Q 227.452 75.262 222.402 77.412 Q 217.352 79.562 211.652 80.262 Q 208.811 80.546 206.399 79.972 A 12.607 12.607 0 0 1 204.502 79.362 Q 201.352 78.062 198.752 75.262 Q 198.052 74.462 197.302 73.612 Q 196.552 72.762 195.752 71.962 A 13.05 13.05 0 0 1 193.962 69.617 A 10.838 10.838 0 0 1 193.052 67.662 Q 192.252 65.362 192.952 62.662 Q 193.152 61.662 193.102 60.662 Q 193.052 59.662 192.852 58.662 A 5.56 5.56 0 0 1 192.748 58.148 Q 192.56 56.912 193.102 56.162 A 3.42 3.42 0 0 1 193.802 55.456 Q 194.157 55.183 194.618 54.948 A 7.616 7.616 0 0 1 195.252 54.662 A 13.792 13.792 0 0 1 197.261 54.023 Q 198.439 53.75 199.534 53.75 A 8.09 8.09 0 0 1 201.602 54.012 A 10.206 10.206 0 0 1 204.863 55.554 A 14.22 14.22 0 0 1 206.952 57.362 Q 208.252 58.662 209.452 60.012 A 170.639 170.639 0 0 0 211.871 62.674 A 185.585 185.585 0 0 0 211.952 62.762 A 3.515 3.515 0 0 0 212.74 63.405 Q 213.884 64.075 215.352 63.562 Q 220.452 61.562 224.402 58.162 Q 228.352 54.762 231.752 50.762 Q 232.905 49.444 232.905 47.821 A 4.897 4.897 0 0 0 232.852 47.112 A 8.848 8.848 0 0 0 232.48 45.602 Q 231.975 44.089 230.887 42.221 A 28.901 28.901 0 0 0 230.852 42.162 Z M 470.852 42.162 Q 469.952 43.162 469.652 44.412 Q 469.352 45.662 468.752 46.762 A 18.405 18.405 0 0 1 466.186 50.095 Q 464.008 52.301 461.353 53.153 A 11.111 11.111 0 0 1 459.202 53.612 Q 453.452 54.262 447.552 49.262 A 10.95 10.95 0 0 1 446.321 47.916 A 8.191 8.191 0 0 1 445.352 46.312 Q 444.652 44.762 444.352 42.862 A 41.017 41.017 0 0 1 443.807 36.263 A 38.465 38.465 0 0 1 443.852 34.412 Q 444.052 30.262 445.052 26.062 A 12.26 12.26 0 0 1 446.425 22.493 Q 448.354 19.248 452.29 18.267 A 12.648 12.648 0 0 1 452.752 18.162 Q 456.252 17.362 459.752 17.262 Q 463.252 17.162 466.752 17.662 Q 468.541 17.93 469.69 16.677 A 4.152 4.152 0 0 0 469.952 16.362 Q 471.052 14.962 472.302 13.762 Q 473.552 12.562 474.852 11.462 Q 476.252 10.362 477.652 11.362 Q 478.552 12.062 479.552 12.712 Q 480.552 13.362 481.352 14.262 Q 483.252 16.262 485.252 18.262 Q 487.252 20.262 488.802 22.612 A 11.253 11.253 0 0 1 490.382 26.417 A 14.236 14.236 0 0 1 490.652 28.162 Q 491.252 34.262 490.652 40.312 Q 490.052 46.362 487.552 52.062 Q 485.652 56.362 483.002 60.362 Q 480.352 64.362 477.752 68.262 Q 476.752 69.762 475.302 70.762 Q 473.852 71.762 472.352 72.562 Q 467.452 75.262 462.402 77.412 Q 457.352 79.562 451.652 80.262 Q 448.811 80.546 446.399 79.972 A 12.607 12.607 0 0 1 444.502 79.362 Q 441.352 78.062 438.752 75.262 Q 438.052 74.462 437.302 73.612 Q 436.552 72.762 435.752 71.962 A 13.05 13.05 0 0 1 433.962 69.617 A 10.838 10.838 0 0 1 433.052 67.662 Q 432.252 65.362 432.952 62.662 Q 433.152 61.662 433.102 60.662 Q 433.052 59.662 432.852 58.662 A 5.56 5.56 0 0 1 432.748 58.148 Q 432.56 56.912 433.102 56.162 A 3.42 3.42 0 0 1 433.802 55.456 Q 434.157 55.183 434.618 54.948 A 7.616 7.616 0 0 1 435.252 54.662 A 13.792 13.792 0 0 1 437.261 54.023 Q 438.439 53.75 439.534 53.75 A 8.09 8.09 0 0 1 441.602 54.012 A 10.206 10.206 0 0 1 444.863 55.554 A 14.22 14.22 0 0 1 446.952 57.362 Q 448.252 58.662 449.452 60.012 A 170.639 170.639 0 0 0 451.871 62.674 A 185.585 185.585 0 0 0 451.952 62.762 A 3.515 3.515 0 0 0 452.74 63.405 Q 453.884 64.075 455.352 63.562 Q 460.452 61.562 464.402 58.162 Q 468.352 54.762 471.752 50.762 Q 472.905 49.444 472.905 47.821 A 4.897 4.897 0 0 0 472.852 47.112 A 8.848 8.848 0 0 0 472.48 45.602 Q 471.975 44.089 470.887 42.221 A 28.901 28.901 0 0 0 470.852 42.162 Z M 211.067 79.478 A 13.221 13.221 0 0 0 210.152 79.562 Q 207.352 79.662 205.052 78.762 Q 202.752 77.862 200.752 75.762 Q 199.452 74.362 198.102 72.962 Q 196.752 71.562 195.552 69.962 A 7.608 7.608 0 0 1 194.672 68.308 A 8.19 8.19 0 0 1 194.152 65.362 A 14.62 14.62 0 0 1 194.15 65.301 Q 194.093 63.44 194.537 62.309 A 3.017 3.017 0 0 1 195.152 61.312 Q 196.252 60.162 199.152 59.862 A 1.712 1.712 0 0 1 200.182 60.19 A 2.219 2.219 0 0 1 200.652 60.662 A 16.578 16.578 0 0 0 201.682 61.649 A 13.79 13.79 0 0 0 205.752 64.162 A 15.458 15.458 0 0 0 206.637 64.478 A 16.483 16.483 0 0 0 211.752 65.262 A 15.105 15.105 0 0 0 212.279 65.252 A 12.791 12.791 0 0 0 217.952 63.762 Q 220.752 62.262 223.252 60.362 Q 225.352 58.762 227.352 56.962 Q 229.352 55.162 231.252 53.362 A 10.245 10.245 0 0 0 232.426 52.122 A 7.656 7.656 0 0 0 233.852 49.362 A 6.017 6.017 0 0 0 234.064 47.771 Q 234.064 46.279 233.352 44.662 Q 232.652 42.962 232.052 41.212 Q 231.452 39.462 230.752 37.762 Q 230.652 37.362 230.452 37.012 Q 230.274 36.7 229.859 36.745 A 1.2 1.2 0 0 0 229.752 36.762 A 1.09 1.09 0 0 0 229.712 36.77 Q 229.286 36.872 229.298 37.252 A 0.737 0.737 0 0 0 229.302 37.312 A 8.664 8.664 0 0 1 229.332 37.642 A 7.195 7.195 0 0 1 229.352 38.162 A 12.821 12.821 0 0 1 229.38 39.015 A 12.319 12.319 0 0 1 229.202 41.112 A 18.475 18.475 0 0 1 229.118 41.566 A 20.507 20.507 0 0 1 228.452 44.062 A 15.237 15.237 0 0 1 227.396 46.704 A 11.122 11.122 0 0 1 224.552 50.262 Q 221.852 52.462 218.402 52.612 Q 214.952 52.762 211.352 50.662 A 14.674 14.674 0 0 1 209.586 49.41 A 11.301 11.301 0 0 1 207.102 46.562 A 12.528 12.528 0 0 1 205.83 43.638 A 17.105 17.105 0 0 1 205.252 40.762 Q 204.752 36.662 205.152 32.712 Q 205.552 28.762 206.552 24.862 A 9.17 9.17 0 0 1 207.032 23.431 A 6.691 6.691 0 0 1 209.252 20.612 A 7.136 7.136 0 0 1 213.539 19.21 A 7.98 7.98 0 0 1 213.702 19.212 A 6.835 6.835 0 0 1 216.397 19.83 A 8.829 8.829 0 0 1 218.352 21.062 A 32.346 32.346 0 0 1 218.746 21.362 A 28.644 28.644 0 0 1 219.852 22.262 A 6.068 6.068 0 0 0 220.075 22.444 A 6.589 6.589 0 0 0 221.452 23.262 A 8.686 8.686 0 0 0 222.766 23.698 Q 226.207 24.528 228.652 21.662 A 4.959 4.959 0 0 1 228.669 21.641 A 3.949 3.949 0 0 1 231.402 20.212 Q 233.052 20.062 234.602 20.812 Q 236.152 21.562 236.752 23.162 Q 237.352 24.762 237.652 26.362 Q 237.952 27.962 238.152 29.662 Q 238.452 31.462 239.052 33.112 A 11.853 11.853 0 0 0 239.139 33.343 A 12.663 12.663 0 0 0 240.752 36.262 A 22.332 22.332 0 0 1 242.394 38.712 A 17.48 17.48 0 0 1 244.652 45.262 Q 244.975 47.79 244.632 50.435 A 24.657 24.657 0 0 1 243.552 55.062 Q 241.352 62.262 236.652 67.962 Q 235.752 69.162 234.502 69.962 Q 233.252 70.762 231.952 71.562 Q 227.552 74.162 222.852 76.262 Q 218.152 78.362 213.052 79.362 Q 212.352 79.462 211.652 79.462 A 10.691 10.691 0 0 0 211.067 79.478 Z M 451.067 79.478 A 13.221 13.221 0 0 0 450.152 79.562 Q 447.352 79.662 445.052 78.762 Q 442.752 77.862 440.752 75.762 Q 439.452 74.362 438.102 72.962 Q 436.752 71.562 435.552 69.962 A 7.608 7.608 0 0 1 434.672 68.308 A 8.19 8.19 0 0 1 434.152 65.362 A 14.62 14.62 0 0 1 434.15 65.301 Q 434.093 63.44 434.537 62.309 A 3.017 3.017 0 0 1 435.152 61.312 Q 436.252 60.162 439.152 59.862 A 1.712 1.712 0 0 1 440.182 60.19 A 2.219 2.219 0 0 1 440.652 60.662 A 16.578 16.578 0 0 0 441.682 61.649 A 13.79 13.79 0 0 0 445.752 64.162 A 15.458 15.458 0 0 0 446.637 64.478 A 16.483 16.483 0 0 0 451.752 65.262 A 15.105 15.105 0 0 0 452.279 65.252 A 12.791 12.791 0 0 0 457.952 63.762 Q 460.752 62.262 463.252 60.362 Q 465.352 58.762 467.352 56.962 Q 469.352 55.162 471.252 53.362 A 10.245 10.245 0 0 0 472.426 52.122 A 7.656 7.656 0 0 0 473.852 49.362 A 6.017 6.017 0 0 0 474.064 47.771 Q 474.064 46.279 473.352 44.662 Q 472.652 42.962 472.052 41.212 Q 471.452 39.462 470.752 37.762 Q 470.652 37.362 470.452 37.012 Q 470.274 36.7 469.859 36.745 A 1.2 1.2 0 0 0 469.752 36.762 A 1.09 1.09 0 0 0 469.712 36.77 Q 469.286 36.872 469.298 37.252 A 0.737 0.737 0 0 0 469.302 37.312 A 8.664 8.664 0 0 1 469.332 37.642 A 7.195 7.195 0 0 1 469.352 38.162 A 12.821 12.821 0 0 1 469.38 39.015 A 12.319 12.319 0 0 1 469.202 41.112 A 18.475 18.475 0 0 1 469.118 41.566 A 20.507 20.507 0 0 1 468.452 44.062 A 15.237 15.237 0 0 1 467.396 46.704 A 11.122 11.122 0 0 1 464.552 50.262 Q 461.852 52.462 458.402 52.612 Q 454.952 52.762 451.352 50.662 A 14.674 14.674 0 0 1 449.586 49.41 A 11.301 11.301 0 0 1 447.102 46.562 A 12.528 12.528 0 0 1 445.83 43.638 A 17.105 17.105 0 0 1 445.252 40.762 Q 444.752 36.662 445.152 32.712 Q 445.552 28.762 446.552 24.862 A 9.17 9.17 0 0 1 447.032 23.431 A 6.691 6.691 0 0 1 449.252 20.612 A 7.136 7.136 0 0 1 453.539 19.21 A 7.98 7.98 0 0 1 453.702 19.212 A 6.835 6.835 0 0 1 456.397 19.83 A 8.829 8.829 0 0 1 458.352 21.062 A 32.346 32.346 0 0 1 458.746 21.362 A 28.644 28.644 0 0 1 459.852 22.262 A 6.068 6.068 0 0 0 460.075 22.444 A 6.589 6.589 0 0 0 461.452 23.262 A 8.686 8.686 0 0 0 462.766 23.698 Q 466.207 24.528 468.652 21.662 A 4.959 4.959 0 0 1 468.669 21.641 A 3.949 3.949 0 0 1 471.402 20.212 Q 473.052 20.062 474.602 20.812 Q 476.152 21.562 476.752 23.162 Q 477.352 24.762 477.652 26.362 Q 477.952 27.962 478.152 29.662 Q 478.452 31.462 479.052 33.112 A 11.853 11.853 0 0 0 479.139 33.343 A 12.663 12.663 0 0 0 480.752 36.262 A 22.332 22.332 0 0 1 482.394 38.712 A 17.48 17.48 0 0 1 484.652 45.262 Q 484.975 47.79 484.632 50.435 A 24.657 24.657 0 0 1 483.552 55.062 Q 481.352 62.262 476.652 67.962 Q 475.752 69.162 474.502 69.962 Q 473.252 70.762 471.952 71.562 Q 467.552 74.162 462.852 76.262 Q 458.152 78.362 453.052 79.362 Q 452.352 79.462 451.652 79.462 A 10.691 10.691 0 0 0 451.067 79.478 Z M 785.052 42.762 Q 784.952 40.762 784.702 38.862 Q 784.452 36.962 783.852 35.162 A 17.902 17.902 0 0 1 782.896 31.144 Q 782.792 30.24 782.792 29.345 A 15.372 15.372 0 0 1 782.902 27.512 Q 783.352 23.762 784.652 20.062 Q 785.252 18.362 786.652 17.212 Q 788.052 16.062 789.352 14.862 Q 789.752 14.462 790.802 14.512 A 16.179 16.179 0 0 1 792.678 14.714 A 17.807 17.807 0 0 1 792.952 14.762 Q 793.837 14.923 794.269 15.213 A 1.222 1.222 0 0 1 794.452 15.362 Q 794.638 15.828 794.564 15.946 A 0.087 0.087 0 0 1 794.552 15.962 A 6.433 6.433 0 0 0 794.062 17.6 Q 793.995 18.033 793.995 18.466 A 5.728 5.728 0 0 0 794.102 19.562 Q 794.452 21.362 794.452 23.162 Q 794.452 26.762 796.002 29.912 Q 797.552 33.062 798.852 36.262 Q 799.252 37.362 800.152 36.362 Q 803.652 32.362 806.752 28.112 Q 809.852 23.862 812.252 19.062 A 8.063 8.063 0 0 0 814.448 16.923 A 7.755 7.755 0 0 0 814.652 16.612 Q 815.552 15.162 816.752 13.862 A 1.765 1.765 0 0 1 817.13 13.626 Q 817.399 13.506 817.68 13.506 A 1.343 1.343 0 0 1 817.802 13.512 A 3.169 3.169 0 0 1 818.277 13.59 A 2.29 2.29 0 0 1 818.752 13.762 Q 820.252 14.062 821.652 14.562 Q 823.052 15.062 824.452 15.662 A 1.692 1.692 0 0 1 824.927 15.9 Q 825.582 16.385 825.352 17.462 Q 823.652 23.462 821.602 29.362 Q 819.552 35.262 816.652 40.862 Q 814.552 44.962 812.452 49.162 Q 810.352 53.362 807.752 57.162 Q 805.452 60.562 802.852 63.762 Q 800.252 66.962 797.352 70.062 Q 795.752 71.762 794.102 73.512 Q 792.452 75.262 790.752 76.962 Q 788.152 79.562 784.952 81.262 Q 781.752 82.962 778.252 84.362 Q 776.552 84.962 774.852 85.312 Q 773.357 85.619 771.786 85.193 A 7.981 7.981 0 0 1 771.352 85.062 Q 770.885 84.875 770.505 85.124 A 1.042 1.042 0 0 0 770.452 85.162 A 7.271 7.271 0 0 0 770.034 85.499 A 5.679 5.679 0 0 0 769.752 85.762 A 56.706 56.706 0 0 1 767.925 86.987 A 62.569 62.569 0 0 1 767.652 87.162 Q 766.552 87.862 765.452 88.662 A 2.98 2.98 0 0 1 764.656 88.99 A 3.649 3.649 0 0 1 764.302 89.062 A 2.117 2.117 0 0 1 764.044 89.086 Q 763.55 89.101 763.152 88.862 A 1.296 1.296 0 0 1 762.915 88.712 Q 762.575 88.436 762.652 88.012 A 6.208 6.208 0 0 0 762.741 87.295 A 5.259 5.259 0 0 0 762.752 86.962 Q 762.852 86.062 763.102 85.162 Q 763.352 84.262 763.752 83.462 Q 765.452 79.462 766.702 75.412 Q 767.952 71.362 770.152 67.662 A 25.267 25.267 0 0 1 771.322 65.973 A 22.619 22.619 0 0 1 771.602 65.612 A 1.841 1.841 0 0 1 772.72 64.944 Q 773.147 64.856 773.681 64.91 A 4.995 4.995 0 0 1 774.052 64.962 Q 774.952 65.062 775.852 65.062 Q 776.752 65.062 777.652 65.262 Q 778.652 65.362 779.152 64.912 A 4.085 4.085 0 0 0 779.683 64.326 A 5.394 5.394 0 0 0 780.052 63.762 Q 780.852 62.162 781.252 60.412 Q 781.652 58.662 782.252 57.062 Q 783.452 53.562 784.202 50.012 Q 784.952 46.462 785.052 42.762 Z M 789.352 24.862 L 789.452 24.762 Q 789.352 23.962 789.302 23.212 Q 789.252 22.462 789.252 21.762 Q 789.306 21.161 789.122 20.858 A 0.623 0.623 0 0 0 788.652 20.562 A 7.853 7.853 0 0 1 787.756 20.382 A 6.652 6.652 0 0 1 787.352 20.262 Q 785.852 19.662 785.452 21.162 Q 785.152 22.362 784.852 23.512 Q 784.552 24.662 784.352 25.862 Q 783.252 30.262 784.752 34.262 Q 785.252 35.762 785.652 37.262 Q 786.052 38.762 786.052 40.462 Q 786.052 41.962 785.902 43.512 Q 785.752 45.062 785.652 46.562 Q 785.552 50.462 784.302 54.062 Q 783.052 57.662 781.952 61.362 A 20.021 20.021 0 0 1 780.4 65.237 A 23.257 23.257 0 0 1 779.802 66.312 Q 778.352 68.762 776.552 70.862 Q 776.152 71.362 775.702 71.812 A 2.178 2.178 0 0 1 775.145 72.209 Q 774.839 72.365 774.452 72.462 Q 773.452 72.562 772.502 72.812 A 5.41 5.41 0 0 1 771.119 72.99 A 5.699 5.699 0 0 1 770.552 72.962 A 3.356 3.356 0 0 0 770.329 72.947 Q 769.495 72.919 769.052 73.362 Q 768.583 73.83 768.202 74.563 A 6.988 6.988 0 0 0 768.152 74.662 Q 767.152 77.362 766.002 79.962 Q 764.852 82.562 764.052 85.262 Q 763.852 85.962 763.552 86.662 A 1.587 1.587 0 0 0 763.481 86.86 Q 763.325 87.42 763.752 87.762 A 1.255 1.255 0 0 0 764.012 87.931 Q 764.482 88.157 765.009 87.838 A 1.799 1.799 0 0 0 765.052 87.812 A 17.889 17.889 0 0 0 765.626 87.427 Q 765.884 87.247 766.107 87.075 A 10.148 10.148 0 0 0 766.252 86.962 Q 771.252 83.362 775.552 79.162 Q 779.152 75.662 782.752 72.212 Q 786.352 68.762 789.852 65.162 Q 793.652 61.262 797.302 57.162 Q 800.952 53.062 804.152 48.662 Q 806.852 44.962 809.502 41.262 Q 812.152 37.562 814.152 33.562 Q 815.652 30.662 816.702 27.712 Q 817.752 24.762 819.352 21.962 A 0.88 0.88 0 0 0 819.405 21.832 Q 819.563 21.328 818.852 21.062 Q 817.852 20.762 816.752 20.412 Q 815.652 20.062 814.652 19.562 A 2.557 2.557 0 0 0 814.406 19.437 Q 813.879 19.207 813.552 19.412 A 1.863 1.863 0 0 0 813.292 19.612 Q 812.996 19.88 812.652 20.362 Q 810.552 24.262 808.152 27.862 Q 805.952 31.062 803.452 34.012 Q 800.952 36.962 798.152 39.762 Q 797.452 40.462 796.802 41.262 Q 796.152 42.062 795.452 42.862 Q 794.985 43.328 794.432 43.185 A 1.205 1.205 0 0 1 794.352 43.162 A 1.019 1.019 0 0 1 794.222 43.121 Q 793.961 43.016 794.002 42.812 A 2.842 2.842 0 0 0 794.036 42.602 Q 794.052 42.474 794.052 42.362 Q 794.052 41.977 793.993 41.77 A 0.63 0.63 0 0 0 793.952 41.662 Q 793.352 38.962 792.402 36.312 Q 791.452 33.662 790.652 30.962 Q 790.252 29.462 790.002 27.912 Q 789.752 26.362 789.352 24.862 Z M 173.152 45.962 A 618.024 618.024 0 0 0 172.821 52.536 A 566.654 566.654 0 0 0 172.802 52.962 Q 172.652 56.362 172.452 59.762 Q 172.352 60.862 172.002 61.912 A 3.069 3.069 0 0 1 171.139 63.215 A 4.218 4.218 0 0 1 170.552 63.662 Q 166.252 65.962 161.752 67.612 Q 157.607 69.131 152.953 68.233 A 20.258 20.258 0 0 1 152.152 68.062 Q 150.435 67.694 149.17 68.228 A 3.934 3.934 0 0 0 147.752 69.262 Q 146.752 70.262 145.502 70.912 A 21.153 21.153 0 0 1 142.874 72.054 A 22.927 22.927 0 0 1 142.852 72.062 Q 138.052 73.629 136.131 68.959 A 10.426 10.426 0 0 1 136.052 68.762 Q 133.852 62.862 135.302 57.612 Q 136.752 52.362 141.152 49.112 A 16.02 16.02 0 0 1 148.648 46.144 Q 150.184 45.935 151.852 45.962 A 8.071 8.071 0 0 0 152.628 45.926 Q 153.233 45.868 153.702 45.712 Q 154.441 45.465 154.452 44.199 A 4.431 4.431 0 0 0 154.452 44.162 A 3.943 3.943 0 0 0 154.463 43.919 Q 154.48 42.799 153.802 42.212 A 2.971 2.971 0 0 0 152.664 41.607 A 4.166 4.166 0 0 0 151.852 41.462 A 56.288 56.288 0 0 0 146.974 41.248 A 54.424 54.424 0 0 0 142.752 41.412 A 17.014 17.014 0 0 0 135.573 43.671 A 20.803 20.803 0 0 0 134.152 44.562 A 7.184 7.184 0 0 1 133.504 45.006 Q 132.641 45.527 131.957 45.527 A 1.583 1.583 0 0 1 131.352 45.412 A 4.045 4.045 0 0 1 130.375 44.829 Q 129.979 44.515 129.597 44.081 A 8.182 8.182 0 0 1 129.252 43.662 A 30.26 30.26 0 0 1 125.64 36.555 A 26.699 26.699 0 0 1 124.602 32.612 Q 123.552 26.862 124.752 20.762 A 12.464 12.464 0 0 1 125.692 17.75 A 9.054 9.054 0 0 1 128.502 14.262 A 11.876 11.876 0 0 1 133.196 12.182 A 15.8 15.8 0 0 1 135.752 11.862 Q 137.752 11.762 139.752 11.812 Q 141.752 11.862 143.652 12.262 A 34.204 34.204 0 0 0 149.177 12.955 A 31.701 31.701 0 0 0 149.352 12.962 Q 151.081 13.023 152.887 12.437 A 14.046 14.046 0 0 0 155.152 11.462 A 7.557 7.557 0 0 1 158.223 10.644 Q 159.296 10.597 160.407 10.863 A 8.934 8.934 0 0 1 160.602 10.912 Q 163.452 11.662 165.802 13.912 Q 168.152 16.162 169.152 19.362 Q 171.352 25.862 172.102 32.612 Q 172.852 39.362 173.152 45.962 Z M 559.152 45.962 A 618.024 618.024 0 0 0 558.821 52.536 A 566.654 566.654 0 0 0 558.802 52.962 Q 558.652 56.362 558.452 59.762 Q 558.352 60.862 558.002 61.912 A 3.069 3.069 0 0 1 557.139 63.215 A 4.218 4.218 0 0 1 556.552 63.662 Q 552.252 65.962 547.752 67.612 Q 543.607 69.131 538.953 68.233 A 20.258 20.258 0 0 1 538.152 68.062 Q 536.435 67.694 535.17 68.228 A 3.934 3.934 0 0 0 533.752 69.262 Q 532.752 70.262 531.502 70.912 A 21.153 21.153 0 0 1 528.874 72.054 A 22.927 22.927 0 0 1 528.852 72.062 Q 524.052 73.629 522.131 68.959 A 10.426 10.426 0 0 1 522.052 68.762 Q 519.852 62.862 521.302 57.612 Q 522.752 52.362 527.152 49.112 A 16.02 16.02 0 0 1 534.648 46.144 Q 536.184 45.935 537.852 45.962 A 8.071 8.071 0 0 0 538.628 45.926 Q 539.233 45.868 539.702 45.712 Q 540.441 45.465 540.452 44.199 A 4.431 4.431 0 0 0 540.452 44.162 A 3.943 3.943 0 0 0 540.463 43.919 Q 540.48 42.799 539.802 42.212 A 2.971 2.971 0 0 0 538.664 41.607 A 4.166 4.166 0 0 0 537.852 41.462 A 56.288 56.288 0 0 0 532.974 41.248 A 54.424 54.424 0 0 0 528.752 41.412 A 17.014 17.014 0 0 0 521.573 43.671 A 20.803 20.803 0 0 0 520.152 44.562 A 7.184 7.184 0 0 1 519.504 45.006 Q 518.641 45.527 517.957 45.527 A 1.583 1.583 0 0 1 517.352 45.412 A 4.045 4.045 0 0 1 516.375 44.829 Q 515.979 44.515 515.597 44.081 A 8.182 8.182 0 0 1 515.252 43.662 A 30.26 30.26 0 0 1 511.64 36.555 A 26.699 26.699 0 0 1 510.602 32.612 Q 509.552 26.862 510.752 20.762 A 12.464 12.464 0 0 1 511.692 17.75 A 9.054 9.054 0 0 1 514.502 14.262 A 11.876 11.876 0 0 1 519.196 12.182 A 15.8 15.8 0 0 1 521.752 11.862 Q 523.752 11.762 525.752 11.812 Q 527.752 11.862 529.652 12.262 A 34.204 34.204 0 0 0 535.177 12.955 A 31.701 31.701 0 0 0 535.352 12.962 Q 537.081 13.023 538.887 12.437 A 14.046 14.046 0 0 0 541.152 11.462 A 7.557 7.557 0 0 1 544.223 10.644 Q 545.296 10.597 546.407 10.863 A 8.934 8.934 0 0 1 546.602 10.912 Q 549.452 11.662 551.802 13.912 Q 554.152 16.162 555.152 19.362 Q 557.352 25.862 558.102 32.612 Q 558.852 39.362 559.152 45.962 Z M 317.452 55.262 Q 317.352 57.362 317.252 59.212 Q 317.152 61.062 316.952 62.962 A 12.828 12.828 0 0 1 316.53 65.088 Q 315.974 66.973 314.852 68.162 A 4.684 4.684 0 0 1 312.655 69.45 Q 311.371 69.809 309.652 69.662 A 18.007 18.007 0 0 0 307.917 69.576 Q 306.226 69.576 304.68 69.916 A 13.568 13.568 0 0 0 303.902 70.112 Q 301.252 70.862 298.652 71.862 Q 295.252 73.162 291.752 73.362 A 20.495 20.495 0 0 1 290.582 73.395 Q 287.835 73.395 285.027 72.662 A 24.507 24.507 0 0 1 284.652 72.562 A 9.266 9.266 0 0 1 278.777 67.98 A 11.872 11.872 0 0 1 278.552 67.562 Q 275.652 61.262 275.052 54.562 Q 274.652 49.562 273.852 44.562 Q 273.052 39.562 272.952 34.462 Q 272.852 30.662 273.152 26.912 Q 273.452 23.162 274.852 19.662 A 17.592 17.592 0 0 1 277.58 15.085 A 22.048 22.048 0 0 1 279.352 13.162 A 9.769 9.769 0 0 1 282.234 11.301 A 12.271 12.271 0 0 1 283.602 10.812 A 14.744 14.744 0 0 1 287.784 10.219 A 16.388 16.388 0 0 1 288.952 10.262 Q 291.752 10.462 294.102 11.862 A 8.846 8.846 0 0 1 297.121 14.884 A 11.351 11.351 0 0 1 297.752 16.062 Q 298.852 18.562 299.952 20.962 Q 301.052 23.362 301.552 25.962 A 12.616 12.616 0 0 1 301.763 26.925 Q 302.153 29.144 301.415 30.386 A 2.795 2.795 0 0 1 301.302 30.562 A 3.284 3.284 0 0 1 300.168 31.542 Q 299.149 32.103 297.5 32.312 A 13.826 13.826 0 0 1 297.052 32.362 Q 295.252 32.562 293.452 32.662 Q 291.652 32.762 289.752 32.762 A 4.733 4.733 0 0 0 289.231 32.788 Q 288.702 32.847 288.413 33.037 A 0.771 0.771 0 0 0 288.152 33.312 A 1.004 1.004 0 0 0 288.051 33.596 Q 287.944 34.131 288.247 35.048 A 6.908 6.908 0 0 0 288.252 35.062 Q 289.752 39.462 291.252 43.912 Q 292.752 48.362 294.252 52.762 A 5.301 5.301 0 0 0 294.459 53.236 Q 294.867 54.049 295.337 54.061 A 0.552 0.552 0 0 0 295.352 54.062 Q 295.952 54.062 296.852 53.162 Q 299.552 50.562 301.152 47.312 Q 302.752 44.062 303.952 40.662 A 6.89 6.89 0 0 1 304.504 39.436 Q 305.37 37.955 306.802 37.662 A 3.207 3.207 0 0 1 307.448 37.595 Q 309.052 37.595 310.552 39.262 A 0.879 0.879 0 0 1 310.59 39.302 Q 310.652 39.372 310.652 39.412 A 0.078 0.078 0 0 0 310.659 39.441 Q 310.676 39.483 310.738 39.548 A 1.045 1.045 0 0 0 310.752 39.562 A 13.333 13.333 0 0 1 312.538 40.359 Q 314.178 41.252 315.052 42.462 Q 316.352 44.262 316.702 46.462 Q 317.052 48.662 317.052 50.912 Q 317.052 53.162 317.452 55.262 Z M 703.452 55.262 Q 703.352 57.362 703.252 59.212 Q 703.152 61.062 702.952 62.962 A 12.828 12.828 0 0 1 702.53 65.088 Q 701.974 66.973 700.852 68.162 A 4.684 4.684 0 0 1 698.655 69.45 Q 697.371 69.809 695.652 69.662 A 18.007 18.007 0 0 0 693.917 69.576 Q 692.226 69.576 690.68 69.916 A 13.568 13.568 0 0 0 689.902 70.112 Q 687.252 70.862 684.652 71.862 Q 681.252 73.162 677.752 73.362 A 20.495 20.495 0 0 1 676.582 73.395 Q 673.835 73.395 671.027 72.662 A 24.507 24.507 0 0 1 670.652 72.562 A 9.266 9.266 0 0 1 664.777 67.98 A 11.872 11.872 0 0 1 664.552 67.562 Q 661.652 61.262 661.052 54.562 Q 660.652 49.562 659.852 44.562 Q 659.052 39.562 658.952 34.462 Q 658.852 30.662 659.152 26.912 Q 659.452 23.162 660.852 19.662 A 17.592 17.592 0 0 1 663.58 15.085 A 22.048 22.048 0 0 1 665.352 13.162 A 9.769 9.769 0 0 1 668.234 11.301 A 12.271 12.271 0 0 1 669.602 10.812 A 14.744 14.744 0 0 1 673.784 10.219 A 16.388 16.388 0 0 1 674.952 10.262 Q 677.752 10.462 680.102 11.862 A 8.846 8.846 0 0 1 683.121 14.884 A 11.351 11.351 0 0 1 683.752 16.062 Q 684.852 18.562 685.952 20.962 Q 687.052 23.362 687.552 25.962 A 12.616 12.616 0 0 1 687.763 26.925 Q 688.153 29.144 687.415 30.386 A 2.795 2.795 0 0 1 687.302 30.562 A 3.284 3.284 0 0 1 686.168 31.542 Q 685.149 32.103 683.5 32.312 A 13.826 13.826 0 0 1 683.052 32.362 Q 681.252 32.562 679.452 32.662 Q 677.652 32.762 675.752 32.762 A 4.733 4.733 0 0 0 675.231 32.788 Q 674.702 32.847 674.413 33.037 A 0.771 0.771 0 0 0 674.152 33.312 A 1.004 1.004 0 0 0 674.051 33.596 Q 673.944 34.131 674.247 35.048 A 6.908 6.908 0 0 0 674.252 35.062 Q 675.752 39.462 677.252 43.912 Q 678.752 48.362 680.252 52.762 A 5.301 5.301 0 0 0 680.459 53.236 Q 680.867 54.049 681.337 54.061 A 0.552 0.552 0 0 0 681.352 54.062 Q 681.952 54.062 682.852 53.162 Q 685.552 50.562 687.152 47.312 Q 688.752 44.062 689.952 40.662 A 6.89 6.89 0 0 1 690.504 39.436 Q 691.37 37.955 692.802 37.662 A 3.207 3.207 0 0 1 693.448 37.595 Q 695.052 37.595 696.552 39.262 A 0.879 0.879 0 0 1 696.59 39.302 Q 696.652 39.372 696.652 39.412 A 0.078 0.078 0 0 0 696.659 39.441 Q 696.676 39.483 696.738 39.548 A 1.045 1.045 0 0 0 696.752 39.562 A 13.333 13.333 0 0 1 698.538 40.359 Q 700.178 41.252 701.052 42.462 Q 702.352 44.262 702.702 46.462 Q 703.052 48.662 703.052 50.912 Q 703.052 53.162 703.452 55.262 Z M 287.452 31.462 L 289.352 31.462 L 289.352 31.662 Q 291.452 31.462 293.602 31.312 Q 295.752 31.162 297.852 31.062 Q 300.767 30.77 300.566 27.741 A 6.569 6.569 0 0 0 300.552 27.562 Q 300.152 24.462 299.102 21.612 Q 298.052 18.762 296.352 16.162 Q 294.752 13.462 291.952 12.212 A 11.285 11.285 0 0 0 287.306 11.204 A 11.589 11.589 0 0 0 286.152 11.262 Q 283.152 11.562 280.852 13.662 Q 275.752 18.262 275.052 24.962 Q 274.652 28.962 274.502 33.112 A 40.503 40.503 0 0 0 274.475 34.575 A 40.256 40.256 0 0 0 275.052 41.362 Q 276.052 46.662 276.452 52.112 Q 276.852 57.562 278.152 62.862 A 16.466 16.466 0 0 0 279.188 65.798 Q 279.983 67.488 281.122 68.708 A 9.511 9.511 0 0 0 281.852 69.412 A 10.07 10.07 0 0 0 285.122 71.27 Q 286.479 71.75 288.105 71.968 A 19.215 19.215 0 0 0 288.952 72.062 A 23.418 23.418 0 0 0 290.251 72.098 A 21.191 21.191 0 0 0 295.852 71.362 Q 299.152 70.462 302.452 69.262 A 9.413 9.413 0 0 0 305.075 67.834 Q 307.477 65.93 307.752 62.562 Q 308.152 57.262 308.502 51.862 Q 308.852 46.462 309.152 41.162 A 12.868 12.868 0 0 0 309.255 40.393 A 15.935 15.935 0 0 0 309.302 39.862 A 1.015 1.015 0 0 0 309.304 39.789 Q 309.304 39.151 308.452 38.962 A 1.868 1.868 0 0 0 307.936 38.889 Q 307.629 38.889 307.313 38.989 A 2.596 2.596 0 0 0 307.002 39.112 A 2.371 2.371 0 0 0 305.93 40.116 A 2.996 2.996 0 0 0 305.852 40.262 Q 305.452 41.262 305.052 42.312 A 30.416 30.416 0 0 0 304.448 44.048 A 27.244 27.244 0 0 0 304.352 44.362 A 26.052 26.052 0 0 1 300.474 51.595 A 23.645 23.645 0 0 1 297.652 54.662 A 10.881 10.881 0 0 1 294.586 56.697 A 9.729 9.729 0 0 1 291.552 57.462 A 11.173 11.173 0 0 1 290.57 57.505 A 9.657 9.657 0 0 1 285.352 56.012 A 9.019 9.019 0 0 1 281.673 51.485 A 11.544 11.544 0 0 1 281.452 50.862 Q 280.552 47.862 280.152 44.712 A 33.483 33.483 0 0 1 279.885 40.489 A 34.103 34.103 0 0 1 279.952 38.362 Q 280.152 35.062 280.602 33.562 Q 281.01 32.2 282.325 31.745 A 3.578 3.578 0 0 1 282.602 31.662 A 6.926 6.926 0 0 1 283.404 31.51 Q 284.908 31.307 287.452 31.462 Z M 673.452 31.462 L 675.352 31.462 L 675.352 31.662 Q 677.452 31.462 679.602 31.312 Q 681.752 31.162 683.852 31.062 Q 686.767 30.77 686.566 27.741 A 6.569 6.569 0 0 0 686.552 27.562 Q 686.152 24.462 685.102 21.612 Q 684.052 18.762 682.352 16.162 Q 680.752 13.462 677.952 12.212 A 11.285 11.285 0 0 0 673.306 11.204 A 11.589 11.589 0 0 0 672.152 11.262 Q 669.152 11.562 666.852 13.662 Q 661.752 18.262 661.052 24.962 Q 660.652 28.962 660.502 33.112 A 40.503 40.503 0 0 0 660.475 34.575 A 40.256 40.256 0 0 0 661.052 41.362 Q 662.052 46.662 662.452 52.112 Q 662.852 57.562 664.152 62.862 A 16.466 16.466 0 0 0 665.188 65.798 Q 665.983 67.488 667.122 68.708 A 9.511 9.511 0 0 0 667.852 69.412 A 10.07 10.07 0 0 0 671.122 71.27 Q 672.479 71.75 674.105 71.968 A 19.215 19.215 0 0 0 674.952 72.062 A 23.418 23.418 0 0 0 676.251 72.098 A 21.191 21.191 0 0 0 681.852 71.362 Q 685.152 70.462 688.452 69.262 A 9.413 9.413 0 0 0 691.075 67.834 Q 693.477 65.93 693.752 62.562 Q 694.152 57.262 694.502 51.862 Q 694.852 46.462 695.152 41.162 A 12.868 12.868 0 0 0 695.255 40.393 A 15.935 15.935 0 0 0 695.302 39.862 A 1.015 1.015 0 0 0 695.304 39.789 Q 695.304 39.151 694.452 38.962 A 1.868 1.868 0 0 0 693.936 38.889 Q 693.629 38.889 693.313 38.989 A 2.596 2.596 0 0 0 693.002 39.112 A 2.371 2.371 0 0 0 691.93 40.116 A 2.996 2.996 0 0 0 691.852 40.262 Q 691.452 41.262 691.052 42.312 A 30.416 30.416 0 0 0 690.448 44.048 A 27.244 27.244 0 0 0 690.352 44.362 A 26.052 26.052 0 0 1 686.474 51.595 A 23.645 23.645 0 0 1 683.652 54.662 A 10.881 10.881 0 0 1 680.586 56.697 A 9.729 9.729 0 0 1 677.552 57.462 A 11.173 11.173 0 0 1 676.57 57.505 A 9.657 9.657 0 0 1 671.352 56.012 A 9.019 9.019 0 0 1 667.673 51.485 A 11.544 11.544 0 0 1 667.452 50.862 Q 666.552 47.862 666.152 44.712 A 33.483 33.483 0 0 1 665.885 40.489 A 34.103 34.103 0 0 1 665.952 38.362 Q 666.152 35.062 666.602 33.562 Q 667.01 32.2 668.325 31.745 A 3.578 3.578 0 0 1 668.602 31.662 A 6.926 6.926 0 0 1 669.404 31.51 Q 670.908 31.307 673.452 31.462 Z M 732.852 20.462 A 82.221 82.221 0 0 0 733.859 19.625 Q 734.364 19.198 734.802 18.812 A 536.232 536.232 0 0 1 736.251 17.537 A 486.517 486.517 0 0 1 736.452 17.362 Q 739.252 14.862 742.352 14.012 A 10.531 10.531 0 0 1 745.149 13.641 Q 747.021 13.641 749.052 14.262 A 3.779 3.779 0 0 0 750.233 14.462 A 3.602 3.602 0 0 0 750.252 14.462 Q 750.852 14.462 751.452 14.362 Q 754.352 14.062 756.952 14.462 A 4.003 4.003 0 0 1 757.895 14.71 Q 759.553 15.396 759.152 17.562 L 758.552 20.762 Q 758.252 22.362 757.752 23.862 A 7.854 7.854 0 0 1 757.379 24.831 Q 756.868 25.92 756.135 26.391 A 2.357 2.357 0 0 1 756.102 26.412 Q 755.052 27.062 753.052 26.762 Q 752.458 26.613 752.14 26.465 A 1.432 1.432 0 0 1 751.952 26.362 Q 749.992 24.868 748.032 24.682 A 5.926 5.926 0 0 0 747.752 24.662 A 14.744 14.744 0 0 0 747.05 24.645 A 15.626 15.626 0 0 0 743.502 25.062 Q 741.352 25.562 739.252 25.962 A 2.977 2.977 0 0 0 738.47 26.174 Q 737.293 26.693 737.428 28.251 A 4.322 4.322 0 0 0 737.452 28.462 Q 737.952 31.062 738.402 33.712 Q 738.852 36.362 739.252 38.962 Q 740.252 44.362 740.652 49.762 Q 741.052 55.162 741.452 60.462 Q 741.652 62.362 741.802 64.262 Q 741.952 66.162 742.152 68.162 Q 742.443 70.492 740.095 70.842 A 5.018 5.018 0 0 1 739.952 70.862 Q 738.752 70.962 737.502 71.112 A 2.04 2.04 0 0 0 736.211 71.801 Q 735.836 72.212 735.552 72.862 A 0.294 0.294 0 0 1 735.486 72.908 Q 735.37 72.972 735.112 73.036 A 4.831 4.831 0 0 1 735.002 73.062 Q 734.552 73.162 734.152 73.262 A 10.188 10.188 0 0 1 732.795 73.361 A 11.175 11.175 0 0 1 732.702 73.362 A 12.308 12.308 0 0 0 731.376 73.435 A 13.75 13.75 0 0 0 731.152 73.462 A 14.271 14.271 0 0 1 730.667 73.496 Q 728.949 73.586 728.202 73.16 A 1.434 1.434 0 0 1 728.052 73.062 A 1.561 1.561 0 0 1 727.639 72.564 Q 727.194 71.768 727.052 70.062 Q 726.852 66.462 726.702 62.912 Q 726.552 59.362 726.352 55.662 Q 726.252 51.862 725.702 48.012 Q 725.152 44.162 724.152 40.462 A 18.019 18.019 0 0 1 723.607 36.076 A 18.054 18.054 0 0 1 723.652 34.812 Q 723.852 31.962 723.952 29.162 Q 724.152 25.162 725.002 21.312 Q 725.852 17.462 726.552 13.562 A 9.091 9.091 0 0 1 726.632 13.263 Q 726.676 13.109 726.731 12.934 A 21.168 21.168 0 0 1 726.852 12.562 Q 727.952 9.062 729.252 8.262 Q 730.373 7.571 733.207 7.923 A 22.995 22.995 0 0 1 734.152 8.062 A 7.694 7.694 0 0 1 734.711 8.161 Q 735.533 8.341 735.802 8.647 A 0.606 0.606 0 0 1 735.852 8.712 A 0.484 0.484 0 0 1 735.925 8.905 Q 736.003 9.385 735.389 10.4 A 9.196 9.196 0 0 1 735.352 10.462 Q 734.052 12.662 733.452 15.112 Q 732.852 17.562 732.852 20.462 Z M 11.252 17.662 A 8.145 8.145 0 0 0 9.666 17.323 Q 8.609 17.21 7.602 17.412 Q 5.852 17.762 4.152 18.062 A 8.239 8.239 0 0 1 3.731 18.107 Q 2.815 18.182 2.25 17.993 A 1.656 1.656 0 0 1 1.952 17.862 A 0.918 0.918 0 0 1 1.575 17.429 Q 1.333 16.899 1.44 15.867 A 7.601 7.601 0 0 1 1.452 15.762 Q 1.66 14.652 1.387 13.397 A 8.554 8.554 0 0 0 1.052 12.262 A 7.039 7.039 0 0 1 0.578 9.738 A 7.301 7.301 0 0 1 0.802 7.962 A 7.301 7.301 0 0 0 1.026 6.186 A 7.039 7.039 0 0 0 0.552 3.662 A 0.83 0.83 0 0 1 0.522 3.547 Q 0.431 3.042 1.152 2.862 Q 3.352 2.062 5.452 1.212 Q 7.552 0.362 9.852 0.062 Q 11.252 -0.138 11.952 0.312 A 1.262 1.262 0 0 1 12.362 0.769 Q 12.606 1.203 12.703 1.942 A 7.223 7.223 0 0 1 12.752 2.462 Q 12.952 5.262 13.352 8.012 Q 13.752 10.762 14.052 13.562 Q 14.252 14.662 14.202 15.712 A 1.207 1.207 0 0 1 13.687 16.641 Q 13.279 16.953 12.55 17.137 A 5.818 5.818 0 0 1 12.452 17.162 A 1.293 1.293 0 0 0 12.286 17.205 Q 11.966 17.315 12.001 17.555 A 0.358 0.358 0 0 0 12.002 17.562 A 2.227 2.227 0 0 0 12.048 17.769 Q 12.114 18.018 12.252 18.362 Q 17.552 29.062 19.202 40.412 Q 20.852 51.762 19.752 63.562 Q 19.752 63.887 19.709 64.128 A 1.641 1.641 0 0 1 19.652 64.362 Q 19.552 65.962 19.352 67.562 A 2.155 2.155 0 0 1 18.385 69.101 Q 17.795 69.515 16.852 69.762 Q 15.252 70.162 13.752 70.712 A 3.666 3.666 0 0 1 12.48 70.936 Q 11.939 70.936 11.365 70.786 A 5.966 5.966 0 0 1 10.452 70.462 A 3.809 3.809 0 0 0 8.937 70.149 Q 8.217 70.149 7.452 70.412 A 17.051 17.051 0 0 1 5.395 70.983 A 14.449 14.449 0 0 1 4.352 71.162 Q 2.247 71.33 1.418 70.967 A 1.225 1.225 0 0 1 1.152 70.812 A 1.119 1.119 0 0 1 0.842 70.394 Q 0.478 69.612 0.552 67.762 Q 0.752 59.562 0.702 51.312 Q 0.652 43.062 0.552 34.862 Q 0.552 32.862 0.402 30.762 Q 0.252 28.662 0.052 26.662 A 9.794 9.794 0 0 1 0.004 25.931 Q -0.095 22.261 2.861 20.649 A 7.945 7.945 0 0 1 3.952 20.162 Q 5.752 19.462 7.552 18.712 Q 9.352 17.962 11.252 17.662 Z M 133.164 38.045 A 31.969 31.969 0 0 0 131.052 42.762 Q 129.252 41.062 128.402 39.012 Q 127.552 36.962 126.952 34.862 A 36.415 36.415 0 0 1 125.844 26 A 35.452 35.452 0 0 1 125.852 25.262 A 21.343 21.343 0 0 1 125.887 24.343 Q 126.194 19.295 128.902 16.312 A 8.64 8.64 0 0 1 129.696 15.541 Q 132.576 13.087 137.552 13.262 Q 143.352 13.362 148.602 15.062 A 20.557 20.557 0 0 1 153.465 17.389 A 25.196 25.196 0 0 1 158.152 21.362 A 22.769 22.769 0 0 1 160.095 23.729 A 17.666 17.666 0 0 1 162.302 27.862 Q 163.552 31.262 163.952 34.912 Q 164.352 38.562 164.652 42.262 Q 165.052 47.362 164.252 52.362 Q 163.452 57.362 162.952 62.362 A 6.191 6.191 0 0 1 162.938 62.47 Q 162.742 63.943 161.873 64.991 A 5.421 5.421 0 0 1 160.302 66.262 Q 158.396 67.316 155.798 67.186 A 13.053 13.053 0 0 1 154.552 67.062 Q 153.556 66.902 152.901 66.536 A 2.279 2.279 0 0 1 151.702 64.962 A 16.191 16.191 0 0 1 151.545 64.072 A 18.463 18.463 0 0 1 151.352 61.362 Q 151.352 57.962 152.252 54.862 Q 153.152 51.762 154.752 48.862 Q 155.652 47.162 156.452 45.512 Q 157.252 43.862 157.952 42.162 Q 158.628 40.472 158.628 38.864 A 7.715 7.715 0 0 0 157.852 35.512 A 8.186 8.186 0 0 0 155.5 32.553 A 9.774 9.774 0 0 0 152.752 31.062 Q 149.051 29.698 145.848 29.698 A 12.9 12.9 0 0 0 139.652 31.212 Q 135.828 33.263 133.164 38.045 Z M 519.164 38.045 A 31.969 31.969 0 0 0 517.052 42.762 Q 515.252 41.062 514.402 39.012 Q 513.552 36.962 512.952 34.862 A 36.415 36.415 0 0 1 511.844 26 A 35.452 35.452 0 0 1 511.852 25.262 A 21.343 21.343 0 0 1 511.887 24.343 Q 512.194 19.295 514.902 16.312 A 8.64 8.64 0 0 1 515.696 15.541 Q 518.576 13.087 523.552 13.262 Q 529.352 13.362 534.602 15.062 A 20.557 20.557 0 0 1 539.465 17.389 A 25.196 25.196 0 0 1 544.152 21.362 A 22.769 22.769 0 0 1 546.095 23.729 A 17.666 17.666 0 0 1 548.302 27.862 Q 549.552 31.262 549.952 34.912 Q 550.352 38.562 550.652 42.262 Q 551.052 47.362 550.252 52.362 Q 549.452 57.362 548.952 62.362 A 6.191 6.191 0 0 1 548.938 62.47 Q 548.742 63.943 547.873 64.991 A 5.421 5.421 0 0 1 546.302 66.262 Q 544.396 67.316 541.798 67.186 A 13.053 13.053 0 0 1 540.552 67.062 Q 539.556 66.902 538.901 66.536 A 2.279 2.279 0 0 1 537.702 64.962 A 16.191 16.191 0 0 1 537.545 64.072 A 18.463 18.463 0 0 1 537.352 61.362 Q 537.352 57.962 538.252 54.862 Q 539.152 51.762 540.752 48.862 Q 541.652 47.162 542.452 45.512 Q 543.252 43.862 543.952 42.162 Q 544.628 40.472 544.628 38.864 A 7.715 7.715 0 0 0 543.852 35.512 A 8.186 8.186 0 0 0 541.5 32.553 A 9.774 9.774 0 0 0 538.752 31.062 Q 535.051 29.698 531.848 29.698 A 12.9 12.9 0 0 0 525.652 31.212 Q 521.828 33.263 519.164 38.045 Z M 731.514 18.769 A 11 11 0 0 0 731.452 19.062 A 1.741 1.741 0 0 1 731.455 19.08 Q 731.519 19.491 731.397 19.995 A 4.029 4.029 0 0 1 731.252 20.462 Q 731.02 21.08 731.386 21.519 A 1.41 1.41 0 0 0 731.652 21.762 Q 732.337 22.142 732.906 21.885 A 1.447 1.447 0 0 0 733.252 21.662 Q 733.952 21.062 734.552 20.562 Q 735.552 19.762 736.452 18.912 Q 737.352 18.062 738.252 17.262 A 10.914 10.914 0 0 1 739.065 16.567 A 8.888 8.888 0 0 1 741.952 15.062 Q 743.952 14.462 746.152 14.662 Q 747.769 14.662 748.645 15.749 A 3.863 3.863 0 0 1 749.252 16.862 Q 749.452 17.262 749.502 17.712 A 9.937 9.937 0 0 0 749.546 18.056 A 11.884 11.884 0 0 0 749.652 18.662 Q 749.971 21.132 749.623 22.11 A 1.245 1.245 0 0 1 749.402 22.512 A 1.326 1.326 0 0 1 749.201 22.697 Q 748.573 23.173 746.913 23.54 A 22.819 22.819 0 0 1 745.752 23.762 Q 743.252 24.162 740.702 24.562 Q 738.152 24.962 735.552 25.562 A 14.747 14.747 0 0 0 735.348 25.62 Q 733.011 26.311 732.052 27.462 A 3.344 3.344 0 0 0 731.493 28.455 Q 731.086 29.557 731.152 31.262 Q 731.652 43.162 733.552 54.862 Q 734.252 58.662 734.552 62.412 Q 734.852 66.162 734.952 69.962 A 4.557 4.557 0 0 1 734.952 69.991 Q 734.938 72.161 732.852 72.062 A 6.069 6.069 0 0 0 732.741 72.063 Q 732.578 72.066 732.433 72.077 A 3.407 3.407 0 0 0 732.152 72.112 A 2.995 2.995 0 0 1 732.065 72.125 Q 731.932 72.143 731.781 72.152 A 5.414 5.414 0 0 1 731.452 72.162 Q 729.352 72.262 728.852 71.762 A 0.892 0.892 0 0 1 728.723 71.594 Q 728.338 70.963 728.252 69.062 Q 728.052 62.762 727.852 56.362 Q 727.652 49.962 726.252 43.662 A 40.144 40.144 0 0 1 725.228 34.711 A 38.795 38.795 0 0 1 725.302 32.312 Q 725.652 26.662 726.252 21.062 A 11.684 11.684 0 0 1 726.258 20.993 A 10.614 10.614 0 0 1 726.652 18.962 L 727.252 16.962 Q 727.552 15.562 728.652 14.962 Q 729.494 14.502 730.453 14.746 A 3.473 3.473 0 0 1 731.052 14.962 A 2.503 2.503 0 0 1 731.406 15.12 Q 732.014 15.455 731.94 15.993 A 1.039 1.039 0 0 1 731.902 16.162 Q 731.652 16.962 731.752 17.662 A 1.801 1.801 0 0 1 731.752 17.671 A 1.89 1.89 0 0 1 731.652 18.262 A 3.218 3.218 0 0 0 731.647 18.275 Q 731.581 18.478 731.514 18.769 Z M 592.552 0.162 Q 592.852 0.162 593.152 0.212 A 1.251 1.251 0 0 0 593.322 0.228 Q 593.553 0.234 593.835 0.166 A 2.789 2.789 0 0 0 593.852 0.162 A 5.424 5.424 0 0 1 594.273 0.104 Q 595.501 -0.015 596.153 0.563 A 1.706 1.706 0 0 1 596.302 0.712 Q 597.011 1.516 597.318 3.26 A 11.68 11.68 0 0 1 597.352 3.462 Q 598.452 9.462 598.752 15.512 Q 599.052 21.562 599.452 27.662 A 229.423 229.423 0 0 1 599.868 41.46 A 227.002 227.002 0 0 1 599.852 44.212 Q 599.752 52.462 600.152 60.762 Q 600.252 64.662 597.152 66.062 Q 595.252 66.862 593.502 67.962 A 8.73 8.73 0 0 1 589.859 69.229 A 10.238 10.238 0 0 1 589.552 69.262 A 2.383 2.383 0 0 0 588.817 69.486 Q 588.521 69.627 588.22 69.853 A 5.036 5.036 0 0 0 587.902 70.112 A 28.861 28.861 0 0 1 586.859 70.99 A 23.895 23.895 0 0 1 586.252 71.462 A 6.618 6.618 0 0 1 585.76 71.803 Q 583.6 73.152 583.377 70.359 A 8.801 8.801 0 0 1 583.352 69.662 Q 583.352 67.462 583.652 65.262 Q 585.052 54.862 585.252 44.412 A 726.974 726.974 0 0 0 585.385 30.5 A 721.677 721.677 0 0 0 585.352 23.562 Q 585.352 20.362 585.152 17.162 Q 584.952 13.962 584.652 10.862 A 13.11 13.11 0 0 1 584.615 9.893 Q 584.615 8.079 585.14 6.456 A 10.42 10.42 0 0 1 585.352 5.862 Q 586.252 3.562 587.352 1.462 Q 588.17 0.098 589.443 0.098 A 2.517 2.517 0 0 1 589.702 0.112 Q 591.152 0.262 592.552 0.162 Z M 628.552 0.162 Q 628.852 0.162 629.152 0.212 A 1.251 1.251 0 0 0 629.322 0.228 Q 629.553 0.234 629.835 0.166 A 2.789 2.789 0 0 0 629.852 0.162 A 5.424 5.424 0 0 1 630.273 0.104 Q 631.501 -0.015 632.153 0.563 A 1.706 1.706 0 0 1 632.302 0.712 Q 633.011 1.516 633.318 3.26 A 11.68 11.68 0 0 1 633.352 3.462 Q 634.452 9.462 634.752 15.512 Q 635.052 21.562 635.452 27.662 A 229.423 229.423 0 0 1 635.868 41.46 A 227.002 227.002 0 0 1 635.852 44.212 Q 635.752 52.462 636.152 60.762 Q 636.252 64.662 633.152 66.062 Q 631.252 66.862 629.502 67.962 A 8.73 8.73 0 0 1 625.859 69.229 A 10.238 10.238 0 0 1 625.552 69.262 A 2.383 2.383 0 0 0 624.817 69.486 Q 624.521 69.627 624.22 69.853 A 5.036 5.036 0 0 0 623.902 70.112 A 28.861 28.861 0 0 1 622.859 70.99 A 23.895 23.895 0 0 1 622.252 71.462 A 6.618 6.618 0 0 1 621.76 71.803 Q 619.6 73.152 619.377 70.359 A 8.801 8.801 0 0 1 619.352 69.662 Q 619.352 67.462 619.652 65.262 Q 621.052 54.862 621.252 44.412 A 726.974 726.974 0 0 0 621.385 30.5 A 721.677 721.677 0 0 0 621.352 23.562 Q 621.352 20.362 621.152 17.162 Q 620.952 13.962 620.652 10.862 A 13.11 13.11 0 0 1 620.615 9.893 Q 620.615 8.079 621.14 6.456 A 10.42 10.42 0 0 1 621.352 5.862 Q 622.252 3.562 623.352 1.462 Q 624.17 0.098 625.443 0.098 A 2.517 2.517 0 0 1 625.702 0.112 Q 627.152 0.262 628.552 0.162 Z M 89.652 9.362 Q 87.652 9.262 85.652 9.612 A 8.943 8.943 0 0 0 83.277 10.397 A 11.991 11.991 0 0 0 81.652 11.362 Q 80.752 11.962 79.802 12.412 A 85.41 85.41 0 0 1 78.178 13.161 A 77.397 77.397 0 0 1 77.952 13.262 A 3.437 3.437 0 0 0 77.477 13.492 Q 77.242 13.631 77.078 13.792 A 1.239 1.239 0 0 0 76.752 14.312 Q 76.566 14.916 76.726 15.909 A 7.605 7.605 0 0 0 76.752 16.062 A 7.224 7.224 0 0 0 77.453 17.811 A 5.939 5.939 0 0 0 78.502 19.162 Q 79.752 20.362 80.752 21.762 A 2.679 2.679 0 0 0 80.92 21.981 Q 81.709 22.9 82.252 21.362 Q 82.752 19.962 83.402 18.462 A 808.168 808.168 0 0 0 84.349 16.268 A 725.859 725.859 0 0 0 84.652 15.562 Q 85.886 12.918 87.508 12.293 A 2.893 2.893 0 0 1 87.952 12.162 A 2.453 2.453 0 0 1 88.458 12.108 Q 90.009 12.108 91.56 14.106 A 11.064 11.064 0 0 1 91.752 14.362 Q 94.152 17.762 95.802 21.562 A 25.945 25.945 0 0 1 97.658 28.199 A 30.143 30.143 0 0 1 97.852 29.862 Q 98.052 31.762 98.252 33.612 Q 98.452 35.462 98.752 37.362 Q 99.552 42.262 100.252 47.112 Q 100.952 51.962 101.352 56.962 Q 101.552 59.062 101.702 61.112 Q 101.852 63.162 102.452 65.162 A 3.774 3.774 0 0 0 102.665 65.773 Q 103.223 66.989 104.452 66.662 Q 104.919 66.545 105.13 66.275 A 0.837 0.837 0 0 0 105.302 65.812 A 5.576 5.576 0 0 0 105.318 65.384 A 4.994 4.994 0 0 0 105.252 64.562 Q 105.052 62.662 104.752 60.762 Q 104.452 58.862 104.352 56.962 Q 104.252 51.162 103.852 45.412 Q 103.452 39.662 102.652 34.062 Q 102.052 29.362 100.902 24.862 Q 99.752 20.362 97.752 16.262 A 21.319 21.319 0 0 0 95.18 12.15 A 19.518 19.518 0 0 0 94.602 11.462 A 6.094 6.094 0 0 0 90.407 9.394 A 8.505 8.505 0 0 0 89.652 9.362 Z M 824.652 17.562 L 824.252 17.762 Q 819.752 21.462 817.852 26.662 Q 816.152 31.262 813.802 35.562 Q 811.452 39.862 808.752 43.962 A 31.195 31.195 0 0 1 807.789 45.266 A 26.712 26.712 0 0 1 807.352 45.812 Q 806.652 46.662 805.952 47.562 Q 803.452 51.162 800.702 54.562 Q 797.952 57.962 794.952 61.162 Q 792.952 63.262 790.902 65.262 Q 788.852 67.262 786.852 69.362 Q 786.452 69.762 786.252 70.212 A 0.404 0.404 0 0 0 786.215 70.377 Q 786.215 70.742 786.911 71.139 A 4.179 4.179 0 0 0 786.952 71.162 Q 788.052 71.762 788.952 72.562 A 12.779 12.779 0 0 1 790.508 74.205 A 11.886 11.886 0 0 1 790.552 74.262 A 1.937 1.937 0 0 0 790.808 74.502 Q 791.593 75.106 792.452 74.162 Q 794.152 72.462 795.802 70.612 Q 797.452 68.762 799.052 66.962 Q 803.552 62.462 807.152 57.062 Q 810.652 51.662 813.552 45.962 Q 816.452 40.262 818.952 34.462 Q 820.652 30.362 822.152 26.112 Q 823.652 21.862 824.652 17.562 Z M 595.752 4.262 Q 594.852 6.362 594.302 8.662 Q 593.752 10.962 593.852 13.262 A 205.447 205.447 0 0 1 594.024 21.675 A 205.841 205.841 0 0 1 593.402 37.662 Q 592.452 49.862 591.452 62.062 A 14.49 14.49 0 0 1 591.268 63.434 A 19.019 19.019 0 0 1 591.002 64.662 Q 590.774 65.573 591.076 66.23 A 1.908 1.908 0 0 0 591.552 66.862 A 1.331 1.331 0 0 0 591.834 67.054 Q 592.524 67.398 593.352 66.612 A 6.688 6.688 0 0 1 594.133 65.969 Q 594.581 65.657 595.028 65.476 A 3.67 3.67 0 0 1 595.352 65.362 A 6.326 6.326 0 0 0 596.524 64.821 Q 597.582 64.186 598.052 63.212 A 6.172 6.172 0 0 0 598.492 61.934 Q 598.638 61.31 598.702 60.574 A 14.019 14.019 0 0 0 598.752 59.362 Q 598.652 49.862 598.552 40.262 Q 598.452 30.662 598.052 21.062 Q 597.952 16.962 597.402 12.812 A 75.263 75.263 0 0 0 596.145 5.903 A 84.988 84.988 0 0 0 595.752 4.262 Z M 631.752 4.262 Q 630.852 6.362 630.302 8.662 Q 629.752 10.962 629.852 13.262 A 205.447 205.447 0 0 1 630.024 21.675 A 205.841 205.841 0 0 1 629.402 37.662 Q 628.452 49.862 627.452 62.062 A 14.49 14.49 0 0 1 627.268 63.434 A 19.019 19.019 0 0 1 627.002 64.662 Q 626.774 65.573 627.076 66.23 A 1.908 1.908 0 0 0 627.552 66.862 A 1.331 1.331 0 0 0 627.834 67.054 Q 628.524 67.398 629.352 66.612 A 6.688 6.688 0 0 1 630.133 65.969 Q 630.581 65.657 631.028 65.476 A 3.67 3.67 0 0 1 631.352 65.362 A 6.326 6.326 0 0 0 632.524 64.821 Q 633.582 64.186 634.052 63.212 A 6.172 6.172 0 0 0 634.492 61.934 Q 634.638 61.31 634.702 60.574 A 14.019 14.019 0 0 0 634.752 59.362 Q 634.652 49.862 634.552 40.262 Q 634.452 30.662 634.052 21.062 Q 633.952 16.962 633.402 12.812 A 75.263 75.263 0 0 0 632.145 5.903 A 84.988 84.988 0 0 0 631.752 4.262 Z M 586.552 43.362 Q 586.552 47.262 586.302 51.112 Q 586.052 54.962 585.752 58.862 Q 585.552 61.262 585.202 63.562 Q 584.852 65.862 584.652 68.262 A 12.414 12.414 0 0 1 584.645 68.665 Q 584.637 68.889 584.623 69.144 A 24.923 24.923 0 0 1 584.602 69.462 Q 584.552 70.162 585.552 70.062 Q 586.145 69.977 586.953 69.318 A 8.055 8.055 0 0 0 587.252 69.062 A 10.91 10.91 0 0 0 588.849 67.257 A 12.279 12.279 0 0 0 589.052 66.962 A 7.444 7.444 0 0 0 589.434 66.327 Q 589.852 65.54 589.852 64.962 Q 591.252 50.662 592.252 36.662 Q 592.752 30.762 592.752 24.912 Q 592.752 19.062 592.452 13.162 A 61.951 61.951 0 0 0 592.396 12.005 Q 592.304 10.447 592.158 9.695 A 5.496 5.496 0 0 0 592.152 9.662 A 1.932 1.932 0 0 0 592.005 9.206 Q 591.854 8.89 591.593 8.726 A 1.17 1.17 0 0 0 591.102 8.562 Q 590.395 8.478 588.755 8.672 A 39.143 39.143 0 0 0 588.052 8.762 Q 586.147 9.047 586.147 11.056 A 4.52 4.52 0 0 0 586.152 11.262 Q 586.552 19.262 586.752 27.312 A 215.843 215.843 0 0 1 586.818 32.673 A 214.012 214.012 0 0 1 586.552 43.362 Z M 622.552 43.362 Q 622.552 47.262 622.302 51.112 Q 622.052 54.962 621.752 58.862 Q 621.552 61.262 621.202 63.562 Q 620.852 65.862 620.652 68.262 A 12.414 12.414 0 0 1 620.645 68.665 Q 620.637 68.889 620.623 69.144 A 24.923 24.923 0 0 1 620.602 69.462 Q 620.552 70.162 621.552 70.062 Q 622.145 69.977 622.953 69.318 A 8.055 8.055 0 0 0 623.252 69.062 A 10.91 10.91 0 0 0 624.849 67.257 A 12.279 12.279 0 0 0 625.052 66.962 A 7.444 7.444 0 0 0 625.434 66.327 Q 625.852 65.54 625.852 64.962 Q 627.252 50.662 628.252 36.662 Q 628.752 30.762 628.752 24.912 Q 628.752 19.062 628.452 13.162 A 61.951 61.951 0 0 0 628.396 12.005 Q 628.304 10.447 628.158 9.695 A 5.496 5.496 0 0 0 628.152 9.662 A 1.932 1.932 0 0 0 628.005 9.206 Q 627.854 8.89 627.593 8.726 A 1.17 1.17 0 0 0 627.102 8.562 Q 626.395 8.478 624.755 8.672 A 39.143 39.143 0 0 0 624.052 8.762 Q 622.147 9.047 622.147 11.056 A 4.52 4.52 0 0 0 622.152 11.262 Q 622.552 19.262 622.752 27.312 A 215.843 215.843 0 0 1 622.818 32.673 A 214.012 214.012 0 0 1 622.552 43.362 Z M 171.452 45.362 Q 171.252 43.062 171.102 40.362 Q 170.952 37.662 170.652 34.862 Q 170.252 30.762 169.452 26.662 Q 168.652 22.562 166.952 18.862 Q 165.652 15.762 162.852 13.912 Q 160.052 12.062 157.352 12.262 Q 156.252 12.362 155.102 12.612 A 1.913 1.913 0 0 0 153.763 13.643 A 3.007 3.007 0 0 0 153.552 14.162 Q 153.154 15.155 154.089 15.704 A 2.25 2.25 0 0 0 154.102 15.712 A 12.438 12.438 0 0 1 155.041 16.31 A 9.565 9.565 0 0 1 155.752 16.862 A 31.01 31.01 0 0 1 160.915 22.241 A 27.085 27.085 0 0 1 162.952 25.412 A 25.302 25.302 0 0 1 165.516 32.538 A 31.863 31.863 0 0 1 166.052 36.362 A 78.399 78.399 0 0 1 166.315 42.769 A 77.395 77.395 0 0 1 166.102 48.512 Q 165.652 54.562 164.952 60.662 A 14.184 14.184 0 0 0 164.884 61.222 Q 164.852 61.532 164.828 61.88 A 26.155 26.155 0 0 0 164.802 62.312 A 1.879 1.879 0 0 0 164.799 62.41 Q 164.799 63.099 165.325 63.539 A 2.085 2.085 0 0 0 165.652 63.762 A 1.978 1.978 0 0 0 166.096 63.902 Q 166.763 64.025 167.402 63.612 Q 168.252 63.062 169.052 62.662 A 3.072 3.072 0 0 0 169.773 62.117 A 2.537 2.537 0 0 0 170.302 61.312 A 4.709 4.709 0 0 0 170.643 59.77 A 5.523 5.523 0 0 0 170.652 59.462 L 171.052 52.662 Q 171.252 49.262 171.452 45.362 Z M 557.452 45.362 Q 557.252 43.062 557.102 40.362 Q 556.952 37.662 556.652 34.862 Q 556.252 30.762 555.452 26.662 Q 554.652 22.562 552.952 18.862 Q 551.652 15.762 548.852 13.912 Q 546.052 12.062 543.352 12.262 Q 542.252 12.362 541.102 12.612 A 1.913 1.913 0 0 0 539.763 13.643 A 3.007 3.007 0 0 0 539.552 14.162 Q 539.154 15.155 540.089 15.704 A 2.25 2.25 0 0 0 540.102 15.712 A 12.438 12.438 0 0 1 541.041 16.31 A 9.565 9.565 0 0 1 541.752 16.862 A 31.01 31.01 0 0 1 546.915 22.241 A 27.085 27.085 0 0 1 548.952 25.412 A 25.302 25.302 0 0 1 551.516 32.538 A 31.863 31.863 0 0 1 552.052 36.362 A 78.399 78.399 0 0 1 552.315 42.769 A 77.395 77.395 0 0 1 552.102 48.512 Q 551.652 54.562 550.952 60.662 A 14.184 14.184 0 0 0 550.884 61.222 Q 550.852 61.532 550.828 61.88 A 26.155 26.155 0 0 0 550.802 62.312 A 1.879 1.879 0 0 0 550.799 62.41 Q 550.799 63.099 551.325 63.539 A 2.085 2.085 0 0 0 551.652 63.762 A 1.978 1.978 0 0 0 552.096 63.902 Q 552.763 64.025 553.402 63.612 Q 554.252 63.062 555.052 62.662 A 3.072 3.072 0 0 0 555.773 62.117 A 2.537 2.537 0 0 0 556.302 61.312 A 4.709 4.709 0 0 0 556.643 59.77 A 5.523 5.523 0 0 0 556.652 59.462 L 557.052 52.662 Q 557.252 49.262 557.452 45.362 Z M 10.91 29.245 A 40.526 40.526 0 0 0 11.352 31.062 Q 11.752 36.562 11.802 42.112 Q 11.852 47.662 11.852 53.262 Q 11.852 56.562 11.552 59.912 Q 11.252 63.262 11.452 66.562 A 6.104 6.104 0 0 1 11.461 66.68 Q 11.532 67.799 11.152 68.512 A 0.935 0.935 0 0 1 10.978 68.742 Q 10.508 69.2 9.295 69.172 A 6.876 6.876 0 0 1 9.052 69.162 A 7.499 7.499 0 0 0 8.477 69.139 A 7.29 7.29 0 0 0 6.502 69.412 Q 5.252 69.762 3.952 69.862 A 6.437 6.437 0 0 1 3.723 69.875 Q 2.62 69.921 2.302 69.512 A 1.132 1.132 0 0 1 2.183 69.32 Q 1.952 68.855 1.952 67.962 Q 2.252 58.662 2.102 49.312 Q 1.952 39.962 1.952 30.562 A 0.703 0.703 0 0 1 1.955 30.496 Q 1.969 30.344 2.052 30.262 Q 2.252 29.162 1.652 27.812 A 3.352 3.352 0 0 1 1.58 27.636 Q 1.232 26.719 1.674 26.121 A 1.615 1.615 0 0 1 2.052 25.762 A 5.04 5.04 0 0 1 3.398 25 A 5.508 5.508 0 0 1 5.352 24.662 A 17.533 17.533 0 0 0 6.057 24.648 A 15.302 15.302 0 0 0 8.952 24.262 A 2.344 2.344 0 0 1 9.064 24.236 Q 9.763 24.098 9.902 24.562 Q 10.052 25.062 10.152 25.562 Q 10.452 26.862 10.702 28.212 A 33.681 33.681 0 0 0 10.91 29.245 Z M 52.152 66.662 L 52.152 65.212 Q 52.152 64.362 52.252 63.562 A 183.797 183.797 0 0 0 52.766 49.811 A 185.082 185.082 0 0 0 52.752 47.512 Q 52.652 39.462 51.752 31.562 Q 51.652 30.062 51.502 28.562 Q 51.352 27.062 50.852 25.662 A 1.977 1.977 0 0 0 50.321 24.896 Q 50.086 24.68 49.766 24.499 A 4.155 4.155 0 0 0 49.502 24.362 A 2.944 2.944 0 0 0 48.886 24.145 Q 48.157 23.98 47.452 24.262 Q 46.599 24.546 46.599 25.234 A 1.168 1.168 0 0 0 46.602 25.312 Q 46.652 26.062 46.652 26.762 A 644.232 644.232 0 0 0 47.051 30.458 L 47.052 30.462 Q 47.252 32.262 47.352 34.162 Q 47.552 37.562 47.602 41.112 A 71.949 71.949 0 0 1 47.609 42.125 A 70.655 70.655 0 0 1 47.352 48.162 Q 46.952 52.762 46.852 57.312 Q 46.752 61.862 45.952 66.262 A 17.42 17.42 0 0 0 45.725 69.038 A 15.867 15.867 0 0 0 46.052 72.262 Q 46.252 72.762 46.452 73.212 Q 46.652 73.662 47.252 73.662 A 5.382 5.382 0 0 0 49.465 73.058 Q 51.633 71.878 52.052 68.462 L 52.052 67.712 A 3.629 3.629 0 0 1 52.06 67.487 Q 52.074 67.265 52.112 66.958 A 16.911 16.911 0 0 1 52.152 66.662 Z M 52.752 70.462 A 9.1 9.1 0 0 0 54.5 69.271 A 7.655 7.655 0 0 0 55.502 68.212 Q 56.416 67.036 56.61 65.139 A 9.92 9.92 0 0 0 56.652 64.562 Q 56.852 61.662 57.202 58.712 Q 57.552 55.762 57.952 52.862 Q 58.852 46.762 58.852 40.812 Q 58.852 34.862 56.752 29.162 Q 56.052 27.362 55.202 25.612 Q 54.352 23.862 53.552 22.162 Q 53.452 21.762 53.152 21.462 A 0.325 0.325 0 0 0 53.084 21.409 Q 52.833 21.265 52.518 21.836 A 3.431 3.431 0 0 0 52.452 21.962 A 24.644 24.644 0 0 0 51.812 23.552 A 27.505 27.505 0 0 0 51.702 23.862 A 2.872 2.872 0 0 0 51.538 24.817 Q 51.538 25.375 51.752 25.962 Q 52.252 27.862 52.352 29.862 Q 52.952 36.262 53.402 42.762 Q 53.852 49.262 53.552 55.862 Q 53.352 59.562 53.152 63.112 Q 52.952 66.662 52.752 70.462 Z M 11.852 20.862 A 4.883 4.883 0 0 0 11.506 21.498 Q 11.182 22.229 11.252 22.862 L 11.452 24.662 Q 11.852 26.562 12.302 28.412 Q 12.752 30.262 12.852 32.162 Q 13.052 36.662 13.102 41.112 Q 13.152 45.562 13.252 50.062 Q 13.352 54.462 13.052 58.812 Q 12.752 63.162 13.052 67.562 Q 13.052 67.962 13.002 68.462 A 0.581 0.581 0 0 0 12.999 68.519 Q 12.999 68.958 13.7 69.148 A 2.615 2.615 0 0 0 13.752 69.162 Q 14.752 69.228 15.731 68.761 A 5.618 5.618 0 0 0 16.702 68.162 A 4.671 4.671 0 0 0 17.539 67.358 A 3.167 3.167 0 0 0 18.252 65.562 A 146.627 146.627 0 0 0 18.796 52.931 A 147.544 147.544 0 0 0 18.752 49.312 Q 18.552 41.162 16.152 33.162 Q 15.252 30.062 14.402 27.012 A 27.536 27.536 0 0 0 12.831 22.794 A 32.681 32.681 0 0 0 11.852 20.862 Z M 740.852 68.262 Q 740.752 66.362 740.552 64.462 Q 740.352 62.562 740.252 60.662 Q 739.752 52.362 738.752 44.212 Q 737.752 36.062 736.152 27.862 Q 735.856 26.383 734.686 27.139 A 2.853 2.853 0 0 0 734.652 27.162 A 3.798 3.798 0 0 0 733.163 28.493 Q 732.552 29.459 732.552 30.862 A 60.029 60.029 0 0 0 732.518 32.862 A 60.117 60.117 0 0 0 732.652 36.862 Q 732.852 39.862 733.152 42.762 Q 733.852 49.162 734.852 55.562 Q 735.852 61.962 736.152 68.462 Q 736.152 70.062 737.552 69.762 A 5.72 5.72 0 0 1 738.796 69.628 A 6.586 6.586 0 0 1 739.452 69.662 A 1.232 1.232 0 0 0 739.574 69.668 Q 740.477 69.668 740.852 68.262 Z M 245.552 52.562 A 2.016 2.016 0 0 0 245.88 52.421 Q 246.054 52.326 246.175 52.205 A 0.937 0.937 0 0 0 246.352 51.962 A 4.014 4.014 0 0 0 246.603 51.337 A 3.577 3.577 0 0 0 246.652 51.162 Q 248.452 45.962 249.302 40.662 A 42.58 42.58 0 0 0 249.837 33.908 A 44.677 44.677 0 0 0 249.652 29.862 A 18.937 18.937 0 0 0 248.719 25.333 A 16.83 16.83 0 0 0 247.952 23.462 A 14.014 14.014 0 0 0 244.832 19.284 A 16.961 16.961 0 0 0 243.752 18.362 Q 243.352 17.962 242.852 17.512 Q 242.413 17.116 241.82 17.454 A 1.935 1.935 0 0 0 241.652 17.562 Q 240.652 18.262 239.352 18.762 A 4.219 4.219 0 0 0 238.049 19.54 A 3.875 3.875 0 0 0 237.352 20.362 Q 236.954 21.077 237.283 21.76 A 2.026 2.026 0 0 0 237.502 22.112 A 4.118 4.118 0 0 1 237.978 22.892 A 3.145 3.145 0 0 1 238.252 23.862 A 1.342 1.342 0 0 0 238.267 24.053 Q 238.297 24.259 238.385 24.552 A 7.22 7.22 0 0 0 238.452 24.762 Q 239.252 27.162 239.402 29.762 Q 239.552 32.362 241.152 34.562 A 27.109 27.109 0 0 1 244.696 40.815 A 24.636 24.636 0 0 1 245.452 43.012 Q 246.752 47.462 245.552 52.562 Z M 485.552 52.562 A 2.016 2.016 0 0 0 485.88 52.421 Q 486.054 52.326 486.175 52.205 A 0.937 0.937 0 0 0 486.352 51.962 A 4.014 4.014 0 0 0 486.603 51.337 A 3.577 3.577 0 0 0 486.652 51.162 Q 488.452 45.962 489.302 40.662 A 42.58 42.58 0 0 0 489.837 33.908 A 44.677 44.677 0 0 0 489.652 29.862 A 18.937 18.937 0 0 0 488.719 25.333 A 16.83 16.83 0 0 0 487.952 23.462 A 14.014 14.014 0 0 0 484.832 19.284 A 16.961 16.961 0 0 0 483.752 18.362 Q 483.352 17.962 482.852 17.512 Q 482.413 17.116 481.82 17.454 A 1.935 1.935 0 0 0 481.652 17.562 Q 480.652 18.262 479.352 18.762 A 4.219 4.219 0 0 0 478.049 19.54 A 3.875 3.875 0 0 0 477.352 20.362 Q 476.954 21.077 477.283 21.76 A 2.026 2.026 0 0 0 477.502 22.112 A 4.118 4.118 0 0 1 477.978 22.892 A 3.145 3.145 0 0 1 478.252 23.862 A 1.342 1.342 0 0 0 478.267 24.053 Q 478.297 24.259 478.385 24.552 A 7.22 7.22 0 0 0 478.452 24.762 Q 479.252 27.162 479.402 29.762 Q 479.552 32.362 481.152 34.562 A 27.109 27.109 0 0 1 484.696 40.815 A 24.636 24.636 0 0 1 485.452 43.012 Q 486.752 47.462 485.552 52.562 Z M 80.425 41.176 A 77.292 77.292 0 0 0 80.152 37.562 A 4.968 4.968 0 0 1 80.252 37.091 Q 80.373 36.642 80.556 36.401 A 0.706 0.706 0 0 1 80.852 36.162 Q 81.172 36.001 81.396 36.194 A 0.659 0.659 0 0 1 81.502 36.312 Q 81.643 36.51 81.737 36.692 A 1.93 1.93 0 0 1 81.852 36.962 A 14.961 14.961 0 0 1 82.213 37.74 A 18.004 18.004 0 0 1 82.752 39.162 Q 83.152 40.362 83.452 41.662 L 85.652 52.062 Q 86.752 57.262 87.452 62.562 Q 87.652 63.362 87.852 64.112 Q 88.052 64.862 88.152 65.662 A 0.799 0.799 0 0 1 88.209 65.82 Q 88.231 65.905 88.242 66.007 A 1.996 1.996 0 0 1 88.252 66.212 L 88.252 66.762 A 0.113 0.113 0 0 1 88.245 66.798 Q 88.185 66.976 87.579 67.426 A 14.075 14.075 0 0 1 87.252 67.662 A 17.639 17.639 0 0 1 86.814 67.958 A 15.42 15.42 0 0 1 85.252 68.862 A 11.259 11.259 0 0 1 84.957 69.004 Q 84.22 69.346 84.052 69.262 A 0.764 0.764 0 0 1 83.662 68.807 A 1.254 1.254 0 0 1 83.602 68.512 Q 83.552 67.962 83.452 67.462 Q 83.252 64.962 83.002 62.412 Q 82.752 59.862 82.552 57.362 Q 82.352 54.462 81.952 51.612 Q 81.552 48.762 80.952 45.962 Q 80.552 43.862 80.452 41.712 A 85.616 85.616 0 0 0 80.425 41.176 Z M 68.145 42.775 A 8.276 8.276 0 0 0 68.152 42.462 A 71.939 71.939 0 0 0 68.209 41.861 Q 68.267 41.227 68.302 40.712 A 4.079 4.079 0 0 1 68.344 40.335 A 3.353 3.353 0 0 1 68.652 39.362 A 4.558 4.558 0 0 1 68.69 39.3 Q 68.974 38.843 69.302 38.562 Q 69.652 38.262 70.152 38.362 Q 70.97 38.634 70.879 39.733 A 3.279 3.279 0 0 1 70.852 39.962 Q 70.552 45.062 70.852 50.062 L 71.452 60.062 Q 71.552 61.862 71.802 63.562 Q 72.052 65.262 72.252 66.962 A 2.191 2.191 0 0 1 72.257 66.987 Q 72.442 67.972 71.652 68.762 Q 70.852 69.562 70.052 69.262 Q 69.874 69.173 69.775 69.064 A 0.439 0.439 0 0 1 69.652 68.762 L 69.652 68.162 Q 69.752 62.262 69.202 56.412 Q 68.652 50.562 68.152 44.762 A 7.059 7.059 0 0 1 68.117 44.474 Q 68.085 44.163 68.085 43.873 A 4.95 4.95 0 0 1 68.102 43.462 A 18.458 18.458 0 0 0 68.129 43.098 Q 68.14 42.926 68.145 42.775 Z M 137.152 62.162 Q 137.252 63.662 137.202 65.162 Q 137.161 66.377 137.613 67.593 A 7.652 7.652 0 0 0 137.852 68.162 A 7.241 7.241 0 0 0 138.515 69.32 A 5.544 5.544 0 0 0 139.352 70.262 A 2.273 2.273 0 0 0 140.527 70.805 Q 141.115 70.9 141.852 70.762 A 6.845 6.845 0 0 0 144.014 69.973 A 8.978 8.978 0 0 0 145.152 69.212 Q 146.752 67.962 147.852 66.212 A 9.245 9.245 0 0 0 148.57 64.841 Q 148.906 64.031 149.012 63.255 A 5.339 5.339 0 0 0 149.052 62.862 Q 149.452 59.862 149.952 56.912 Q 150.452 53.962 151.552 51.162 Q 151.952 50.362 152.402 49.612 A 1.17 1.17 0 0 0 152.528 49.323 Q 152.669 48.816 152.252 48.286 A 2.54 2.54 0 0 0 152.052 48.062 A 2.234 2.234 0 0 0 151.605 47.664 Q 151.068 47.31 150.411 47.41 A 2.043 2.043 0 0 0 150.402 47.412 Q 149.452 47.562 148.552 47.762 Q 137.151 49.943 137.151 61.952 A 25.575 25.575 0 0 0 137.152 62.162 Z M 523.152 62.162 Q 523.252 63.662 523.202 65.162 Q 523.161 66.377 523.613 67.593 A 7.652 7.652 0 0 0 523.852 68.162 A 7.241 7.241 0 0 0 524.515 69.32 A 5.544 5.544 0 0 0 525.352 70.262 A 2.273 2.273 0 0 0 526.527 70.805 Q 527.115 70.9 527.852 70.762 A 6.845 6.845 0 0 0 530.014 69.973 A 8.978 8.978 0 0 0 531.152 69.212 Q 532.752 67.962 533.852 66.212 A 9.245 9.245 0 0 0 534.57 64.841 Q 534.906 64.031 535.012 63.255 A 5.339 5.339 0 0 0 535.052 62.862 Q 535.452 59.862 535.952 56.912 Q 536.452 53.962 537.552 51.162 Q 537.952 50.362 538.402 49.612 A 1.17 1.17 0 0 0 538.528 49.323 Q 538.669 48.816 538.252 48.286 A 2.54 2.54 0 0 0 538.052 48.062 A 2.234 2.234 0 0 0 537.605 47.664 Q 537.068 47.31 536.411 47.41 A 2.043 2.043 0 0 0 536.402 47.412 Q 535.452 47.562 534.552 47.762 Q 523.151 49.943 523.151 61.952 A 25.575 25.575 0 0 0 523.152 62.162 Z M 316.09 53.299 A 54.016 54.016 0 0 0 315.902 51.662 A 71.144 71.144 0 0 0 315.35 48.091 A 60.749 60.749 0 0 0 315.052 46.562 Q 314.552 44.162 314.052 43.262 Q 313.652 42.562 313.252 42.012 A 0.955 0.955 0 0 0 312.549 41.616 Q 312.291 41.588 311.967 41.658 A 2.708 2.708 0 0 0 311.952 41.662 Q 311.437 41.719 311.151 41.956 A 0.935 0.935 0 0 0 310.852 42.412 A 4.456 4.456 0 0 0 310.685 43.236 A 5.722 5.722 0 0 0 310.652 43.862 Q 310.452 46.062 310.252 48.362 Q 310.052 50.662 309.952 52.962 Q 309.852 55.862 309.702 58.762 Q 309.552 61.662 308.752 64.562 A 23.546 23.546 0 0 0 308.587 65.351 Q 308.133 67.739 308.65 68.26 A 0.516 0.516 0 0 0 308.652 68.262 Q 309.252 68.862 312.552 68.162 A 5.186 5.186 0 0 0 313.37 67.953 Q 313.782 67.808 314.088 67.601 A 1.939 1.939 0 0 0 314.752 66.862 A 5.642 5.642 0 0 0 315.221 65.494 A 7.21 7.21 0 0 0 315.352 64.562 Q 315.652 62.562 315.852 60.462 Q 316.052 58.362 316.252 56.162 Q 316.252 54.938 316.09 53.299 Z M 702.09 53.299 A 54.016 54.016 0 0 0 701.902 51.662 A 71.144 71.144 0 0 0 701.35 48.091 A 60.749 60.749 0 0 0 701.052 46.562 Q 700.552 44.162 700.052 43.262 Q 699.652 42.562 699.252 42.012 A 0.955 0.955 0 0 0 698.549 41.616 Q 698.291 41.588 697.967 41.658 A 2.708 2.708 0 0 0 697.952 41.662 Q 697.437 41.719 697.151 41.956 A 0.935 0.935 0 0 0 696.852 42.412 A 4.456 4.456 0 0 0 696.685 43.236 A 5.722 5.722 0 0 0 696.652 43.862 Q 696.452 46.062 696.252 48.362 Q 696.052 50.662 695.952 52.962 Q 695.852 55.862 695.702 58.762 Q 695.552 61.662 694.752 64.562 A 23.546 23.546 0 0 0 694.587 65.351 Q 694.133 67.739 694.65 68.26 A 0.516 0.516 0 0 0 694.652 68.262 Q 695.252 68.862 698.552 68.162 A 5.186 5.186 0 0 0 699.37 67.953 Q 699.782 67.808 700.088 67.601 A 1.939 1.939 0 0 0 700.752 66.862 A 5.642 5.642 0 0 0 701.221 65.494 A 7.21 7.21 0 0 0 701.352 64.562 Q 701.652 62.562 701.852 60.462 Q 702.052 58.362 702.252 56.162 Q 702.252 54.938 702.09 53.299 Z M 225.752 38.462 Q 225.552 39.962 225.402 41.662 A 4.962 4.962 0 0 1 224.399 44.226 A 6.442 6.442 0 0 1 223.952 44.762 A 6.656 6.656 0 0 1 222.213 46.196 Q 220.57 47.116 218.502 46.862 A 8.051 8.051 0 0 1 214.605 45.241 A 11.893 11.893 0 0 1 212.652 43.362 A 11.592 11.592 0 0 1 211.269 41.159 A 8.119 8.119 0 0 1 210.452 37.662 A 14.016 14.016 0 0 1 211.123 33.441 A 17.199 17.199 0 0 1 211.752 31.762 Q 212.052 30.962 212.502 30.262 Q 212.952 29.562 213.352 28.862 Q 214.152 27.362 215.402 26.212 Q 216.652 25.062 218.552 25.162 A 5.411 5.411 0 0 1 220.441 25.583 A 4.884 4.884 0 0 1 221.902 26.562 Q 223.252 27.862 224.052 29.562 Q 225.052 31.562 225.352 33.812 A 51.224 51.224 0 0 1 225.745 38.312 A 55.878 55.878 0 0 1 225.752 38.462 Z M 465.752 38.462 Q 465.552 39.962 465.402 41.662 A 4.962 4.962 0 0 1 464.399 44.226 A 6.442 6.442 0 0 1 463.952 44.762 A 6.656 6.656 0 0 1 462.213 46.196 Q 460.57 47.116 458.502 46.862 A 8.051 8.051 0 0 1 454.605 45.241 A 11.893 11.893 0 0 1 452.652 43.362 A 11.592 11.592 0 0 1 451.269 41.159 A 8.119 8.119 0 0 1 450.452 37.662 A 14.016 14.016 0 0 1 451.123 33.441 A 17.199 17.199 0 0 1 451.752 31.762 Q 452.052 30.962 452.502 30.262 Q 452.952 29.562 453.352 28.862 Q 454.152 27.362 455.402 26.212 Q 456.652 25.062 458.552 25.162 A 5.411 5.411 0 0 1 460.441 25.583 A 4.884 4.884 0 0 1 461.902 26.562 Q 463.252 27.862 464.052 29.562 Q 465.052 31.562 465.352 33.812 A 51.224 51.224 0 0 1 465.745 38.312 A 55.878 55.878 0 0 1 465.752 38.462 Z M 281.452 40.662 Q 281.352 43.162 281.702 45.462 Q 282.052 47.762 282.652 50.062 Q 283.452 53.162 285.852 54.762 Q 288.252 56.362 291.352 56.162 A 3.629 3.629 0 0 0 292.053 56.07 Q 293.55 55.707 293.11 53.969 A 4.558 4.558 0 0 0 293.052 53.762 Q 291.552 48.762 289.902 43.862 Q 288.252 38.962 286.152 34.262 A 5.086 5.086 0 0 0 285.939 33.769 Q 285.717 33.327 285.452 33.062 A 1.009 1.009 0 0 0 285.041 32.818 Q 284.683 32.703 284.152 32.762 A 2.284 2.284 0 0 0 283.335 32.953 Q 282.465 33.353 282.252 34.562 Q 281.852 36.062 281.602 37.612 Q 281.352 39.162 281.452 40.662 Z M 667.452 40.662 Q 667.352 43.162 667.702 45.462 Q 668.052 47.762 668.652 50.062 Q 669.452 53.162 671.852 54.762 Q 674.252 56.362 677.352 56.162 A 3.629 3.629 0 0 0 678.053 56.07 Q 679.55 55.707 679.11 53.969 A 4.558 4.558 0 0 0 679.052 53.762 Q 677.552 48.762 675.902 43.862 Q 674.252 38.962 672.152 34.262 A 5.086 5.086 0 0 0 671.939 33.769 Q 671.717 33.327 671.452 33.062 A 1.009 1.009 0 0 0 671.041 32.818 Q 670.683 32.703 670.152 32.762 A 2.284 2.284 0 0 0 669.335 32.953 Q 668.465 33.353 668.252 34.562 Q 667.852 36.062 667.602 37.612 Q 667.352 39.162 667.452 40.662 Z M 146.352 31.562 Q 141.452 31.562 138.602 33.262 Q 135.752 34.962 134.252 38.862 A 64.039 64.039 0 0 0 133.689 40.218 A 69.939 69.939 0 0 0 133.652 40.312 Q 133.414 40.905 133.741 41.405 A 1.61 1.61 0 0 0 133.952 41.662 Q 134.552 42.362 135.302 42.012 A 10.559 10.559 0 0 1 136.22 41.633 A 8.711 8.711 0 0 1 136.752 41.462 Q 141.152 39.962 145.602 39.612 A 29.545 29.545 0 0 1 147.919 39.521 A 31.625 31.625 0 0 1 154.652 40.262 Q 155.892 40.553 156.387 40.26 A 0.628 0.628 0 0 0 156.652 39.962 Q 156.918 39.34 156.711 38.244 A 7.227 7.227 0 0 0 156.652 37.962 Q 155.952 34.562 153.502 33.062 A 8.54 8.54 0 0 0 151.45 32.177 Q 149.428 31.581 146.539 31.562 A 29.031 29.031 0 0 0 146.352 31.562 Z M 532.352 31.562 Q 527.452 31.562 524.602 33.262 Q 521.752 34.962 520.252 38.862 A 64.039 64.039 0 0 0 519.689 40.218 A 69.939 69.939 0 0 0 519.652 40.312 Q 519.414 40.905 519.741 41.405 A 1.61 1.61 0 0 0 519.952 41.662 Q 520.552 42.362 521.302 42.012 A 10.559 10.559 0 0 1 522.22 41.633 A 8.711 8.711 0 0 1 522.752 41.462 Q 527.152 39.962 531.602 39.612 A 29.545 29.545 0 0 1 533.919 39.521 A 31.625 31.625 0 0 1 540.652 40.262 Q 541.892 40.553 542.387 40.26 A 0.628 0.628 0 0 0 542.652 39.962 Q 542.918 39.34 542.711 38.244 A 7.227 7.227 0 0 0 542.652 37.962 Q 541.952 34.562 539.502 33.062 A 8.54 8.54 0 0 0 537.45 32.177 Q 535.428 31.581 532.539 31.562 A 29.031 29.031 0 0 0 532.352 31.562 Z M 795.052 41.662 Q 795.852 41.162 796.452 40.412 Q 797.052 39.662 797.752 39.062 A 2.85 2.85 0 0 0 798.176 38.53 Q 798.779 37.538 798.152 36.362 Q 797.752 35.462 797.402 34.562 Q 797.052 33.662 796.552 32.762 Q 795.552 30.462 794.602 28.062 Q 793.652 25.662 793.552 23.062 Q 793.552 22.162 793.502 21.262 Q 793.452 20.362 793.352 19.462 Q 793.352 19.232 793.323 18.944 A 7.954 7.954 0 0 0 793.302 18.762 Q 793.253 18.374 792.689 18.55 A 1.918 1.918 0 0 0 792.652 18.562 A 0.283 0.283 0 0 0 792.543 18.59 Q 792.314 18.691 791.819 19.146 A 11.388 11.388 0 0 0 791.802 19.162 Q 791.152 19.762 790.652 20.462 Q 790.199 21.096 790.156 21.402 A 0.435 0.435 0 0 0 790.152 21.462 A 37.496 37.496 0 0 1 790.396 23.355 A 32.829 32.829 0 0 1 790.452 23.962 Q 790.552 25.162 790.652 26.462 Q 791.152 29.862 792.302 33.062 Q 793.452 36.262 794.252 39.562 Q 794.452 40.062 794.552 40.612 A 2.207 2.207 0 0 0 794.846 41.368 A 2.807 2.807 0 0 0 795.052 41.662 Z M 68.352 10.762 Q 66.452 10.562 64.552 10.562 A 39.092 39.092 0 0 0 60.777 10.749 A 42.644 42.644 0 0 0 60.652 10.762 A 1.793 1.793 0 0 0 60.047 10.906 Q 59.529 11.141 59.345 11.737 A 2.347 2.347 0 0 0 59.252 12.262 Q 59.152 13.462 59.002 14.612 Q 58.852 15.762 58.552 16.862 A 2.537 2.537 0 0 0 58.48 17.119 Q 58.295 17.961 58.914 18.343 A 1.538 1.538 0 0 0 59.152 18.462 Q 60.552 19.062 62.002 19.612 Q 63.452 20.162 64.952 20.562 Q 65.252 20.662 65.602 20.662 A 0.953 0.953 0 0 0 65.929 20.6 Q 66.057 20.554 66.19 20.472 A 2.079 2.079 0 0 0 66.352 20.362 Q 68.152 18.662 70.252 17.412 Q 72.352 16.162 74.352 14.862 A 1.615 1.615 0 0 0 74.748 14.516 Q 75.235 13.911 74.863 12.926 A 3.752 3.752 0 0 0 74.752 12.662 A 2.639 2.639 0 0 0 74.114 11.873 A 2.422 2.422 0 0 0 72.952 11.362 Q 71.852 11.162 70.652 11.012 Q 69.452 10.862 68.352 10.762 Z M 215.952 30.662 L 215.952 30.962 L 216.052 30.962 Q 216.052 31.462 216.002 32.062 Q 215.962 32.537 216.017 32.949 A 3.259 3.259 0 0 0 216.052 33.162 A 24.833 24.833 0 0 0 217.285 38.148 A 23.118 23.118 0 0 0 217.402 38.462 A 10.106 10.106 0 0 0 220.348 42.591 A 11.966 11.966 0 0 0 220.552 42.762 A 5.975 5.975 0 0 0 222.224 43.652 A 5.695 5.695 0 0 0 222.252 43.662 A 1.136 1.136 0 0 0 222.431 43.706 Q 223.171 43.825 223.531 42.726 A 3.753 3.753 0 0 0 223.552 42.662 A 18.579 18.579 0 0 0 224.384 37.482 Q 224.386 37.355 224.386 37.228 A 17.486 17.486 0 0 0 224.302 35.512 A 15.899 15.899 0 0 0 222.426 29.49 A 18.754 18.754 0 0 0 221.952 28.662 A 8.944 8.944 0 0 0 220.299 26.746 A 10.011 10.011 0 0 0 220.202 26.662 Q 219.152 25.762 217.652 26.262 A 3.293 3.293 0 0 0 216.952 26.564 Q 216.539 26.81 216.315 27.156 A 1.722 1.722 0 0 0 216.052 28.112 A 32.807 32.807 0 0 1 216.013 29.74 A 27.622 27.622 0 0 1 215.952 30.662 Z M 455.952 30.662 L 455.952 30.962 L 456.052 30.962 Q 456.052 31.462 456.002 32.062 Q 455.962 32.537 456.017 32.949 A 3.259 3.259 0 0 0 456.052 33.162 A 24.833 24.833 0 0 0 457.285 38.148 A 23.118 23.118 0 0 0 457.402 38.462 A 10.106 10.106 0 0 0 460.348 42.591 A 11.966 11.966 0 0 0 460.552 42.762 A 5.975 5.975 0 0 0 462.224 43.652 A 5.695 5.695 0 0 0 462.252 43.662 A 1.136 1.136 0 0 0 462.431 43.706 Q 463.171 43.825 463.531 42.726 A 3.753 3.753 0 0 0 463.552 42.662 A 18.579 18.579 0 0 0 464.384 37.482 Q 464.386 37.355 464.386 37.228 A 17.486 17.486 0 0 0 464.302 35.512 A 15.899 15.899 0 0 0 462.426 29.49 A 18.754 18.754 0 0 0 461.952 28.662 A 8.944 8.944 0 0 0 460.299 26.746 A 10.011 10.011 0 0 0 460.202 26.662 Q 459.152 25.762 457.652 26.262 A 3.293 3.293 0 0 0 456.952 26.564 Q 456.539 26.81 456.315 27.156 A 1.722 1.722 0 0 0 456.052 28.112 A 32.807 32.807 0 0 1 456.013 29.74 A 27.622 27.622 0 0 1 455.952 30.662 Z M 288.152 16.962 L 288.152 16.862 L 291.952 16.862 A 9.849 9.849 0 0 1 293.663 17.005 A 8.344 8.344 0 0 1 294.552 17.212 A 1.305 1.305 0 0 1 295.462 18.136 Q 295.639 18.693 295.552 19.562 A 12.643 12.643 0 0 1 295.132 22.168 A 11.441 11.441 0 0 1 294.952 22.762 A 2.107 2.107 0 0 1 293.88 23.976 Q 293.489 24.183 292.969 24.307 A 6.687 6.687 0 0 1 291.952 24.462 A 32.841 32.841 0 0 1 290.584 24.49 A 31.954 31.954 0 0 1 287.202 24.312 Q 284.852 24.062 282.552 23.862 A 5.659 5.659 0 0 1 281.423 23.648 A 4.594 4.594 0 0 1 280.602 23.312 A 1.359 1.359 0 0 1 279.898 22.367 Q 279.823 22.043 279.847 21.629 A 3.748 3.748 0 0 1 279.852 21.562 A 68.4 68.4 0 0 0 280.164 19.035 A 75.242 75.242 0 0 0 280.202 18.662 A 1.628 1.628 0 0 1 281.151 17.295 Q 281.472 17.133 281.9 17.044 A 5.008 5.008 0 0 1 282.452 16.962 A 13.34 13.34 0 0 1 284.341 16.828 A 13.966 13.966 0 0 1 285.302 16.862 Q 286.752 16.962 288.152 16.962 Z M 674.152 16.962 L 674.152 16.862 L 677.952 16.862 A 9.849 9.849 0 0 1 679.663 17.005 A 8.344 8.344 0 0 1 680.552 17.212 A 1.305 1.305 0 0 1 681.462 18.136 Q 681.639 18.693 681.552 19.562 A 12.643 12.643 0 0 1 681.132 22.168 A 11.441 11.441 0 0 1 680.952 22.762 A 2.107 2.107 0 0 1 679.88 23.976 Q 679.489 24.183 678.969 24.307 A 6.687 6.687 0 0 1 677.952 24.462 A 32.841 32.841 0 0 1 676.584 24.49 A 31.954 31.954 0 0 1 673.202 24.312 Q 670.852 24.062 668.552 23.862 A 5.659 5.659 0 0 1 667.423 23.648 A 4.594 4.594 0 0 1 666.602 23.312 A 1.359 1.359 0 0 1 665.898 22.367 Q 665.823 22.043 665.847 21.629 A 3.748 3.748 0 0 1 665.852 21.562 A 68.4 68.4 0 0 0 666.164 19.035 A 75.242 75.242 0 0 0 666.202 18.662 A 1.628 1.628 0 0 1 667.151 17.295 Q 667.472 17.133 667.9 17.044 A 5.008 5.008 0 0 1 668.452 16.962 A 13.34 13.34 0 0 1 670.341 16.828 A 13.966 13.966 0 0 1 671.302 16.862 Q 672.752 16.962 674.152 16.962 Z M 219.596 43.62 A 12.379 12.379 0 0 0 221.852 44.962 A 5.653 5.653 0 0 1 221.262 45.354 Q 218.761 46.796 215.82 44.77 A 12.258 12.258 0 0 1 214.452 43.662 A 10.218 10.218 0 0 1 214.371 43.586 A 8.16 8.16 0 0 1 211.702 37.812 Q 211.603 35.531 212.661 33.054 A 17.751 17.751 0 0 1 214.052 30.462 Q 214.652 33.362 215.302 36.162 A 18.428 18.428 0 0 0 215.343 36.336 A 16.416 16.416 0 0 0 217.402 41.262 A 8.953 8.953 0 0 0 219.596 43.62 Z M 459.596 43.62 A 12.379 12.379 0 0 0 461.852 44.962 A 5.653 5.653 0 0 1 461.262 45.354 Q 458.761 46.796 455.82 44.77 A 12.258 12.258 0 0 1 454.452 43.662 A 10.218 10.218 0 0 1 454.371 43.586 A 8.16 8.16 0 0 1 451.702 37.812 Q 451.603 35.531 452.661 33.054 A 17.751 17.751 0 0 1 454.052 30.462 Q 454.652 33.362 455.302 36.162 A 18.428 18.428 0 0 0 455.343 36.336 A 16.416 16.416 0 0 0 457.402 41.262 A 8.953 8.953 0 0 0 459.596 43.62 Z M 757.452 20.162 A 19.931 19.931 0 0 0 757.642 19.233 Q 758.019 17.128 757.633 16.166 A 1.422 1.422 0 0 0 757.352 15.712 Q 756.452 14.762 752.952 15.162 A 8.239 8.239 0 0 1 752.518 15.258 A 6.538 6.538 0 0 1 752.202 15.312 Q 751.852 15.362 751.552 15.362 Q 750.352 15.462 750.652 16.762 A 8.589 8.589 0 0 1 751.106 19.446 Q 751.106 19.468 751.106 19.489 A 8.186 8.186 0 0 1 751.102 19.762 Q 751.052 21.262 750.852 22.762 Q 750.691 23.459 750.832 23.941 A 1.245 1.245 0 0 0 751.302 24.612 A 5.425 5.425 0 0 0 752.509 25.273 A 6.56 6.56 0 0 0 753.052 25.462 Q 754.052 25.862 754.852 25.612 Q 755.652 25.362 756.052 24.262 A 41.279 41.279 0 0 0 756.513 22.926 A 34.749 34.749 0 0 0 756.752 22.162 Q 757.052 21.162 757.452 20.162 Z M 211.452 64.062 Q 209.552 61.962 207.802 59.862 Q 206.052 57.762 203.652 56.162 A 9.522 9.522 0 0 0 203.17 55.824 A 11.987 11.987 0 0 0 202.752 55.562 A 1.028 1.028 0 0 0 202.367 55.422 Q 202.147 55.39 201.91 55.459 A 1.546 1.546 0 0 0 201.652 55.562 Q 201.052 55.862 200.952 56.512 A 8.513 8.513 0 0 0 200.858 57.457 A 7.434 7.434 0 0 0 200.852 57.762 L 201.052 58.562 A 5.642 5.642 0 0 0 201.158 58.931 Q 201.219 59.118 201.298 59.323 A 9.89 9.89 0 0 0 201.352 59.462 A 5.433 5.433 0 0 0 202.276 60.759 Q 202.744 61.254 203.368 61.711 A 10.428 10.428 0 0 0 203.802 62.012 Q 205.552 63.162 207.652 63.712 Q 209.752 64.262 211.452 64.062 Z M 451.452 64.062 Q 449.552 61.962 447.802 59.862 Q 446.052 57.762 443.652 56.162 A 9.522 9.522 0 0 0 443.17 55.824 A 11.987 11.987 0 0 0 442.752 55.562 A 1.028 1.028 0 0 0 442.367 55.422 Q 442.147 55.39 441.91 55.459 A 1.546 1.546 0 0 0 441.652 55.562 Q 441.052 55.862 440.952 56.512 A 8.513 8.513 0 0 0 440.858 57.457 A 7.434 7.434 0 0 0 440.852 57.762 L 441.052 58.562 A 5.642 5.642 0 0 0 441.158 58.931 Q 441.219 59.118 441.298 59.323 A 9.89 9.89 0 0 0 441.352 59.462 A 5.433 5.433 0 0 0 442.276 60.759 Q 442.744 61.254 443.368 61.711 A 10.428 10.428 0 0 0 443.802 62.012 Q 445.552 63.162 447.652 63.712 Q 449.752 64.262 451.452 64.062 Z M 281.452 19.762 Q 284.152 20.462 286.802 20.662 Q 289.452 20.862 292.052 20.662 Q 292.752 20.662 293.402 20.462 A 0.832 0.832 0 0 0 293.956 19.911 Q 294.052 19.645 294.052 19.262 Q 294.106 18.661 293.922 18.358 A 0.623 0.623 0 0 0 293.452 18.062 Q 292.752 17.962 292.052 17.962 Q 290.252 17.862 288.452 17.812 A 133.274 133.274 0 0 0 284.767 17.762 A 91.783 91.783 0 0 0 284.752 17.762 A 4.876 4.876 0 0 0 283.135 18.044 A 5.606 5.606 0 0 0 282.952 18.112 A 2.143 2.143 0 0 0 282.198 18.624 Q 281.95 18.877 281.733 19.231 A 5.149 5.149 0 0 0 281.452 19.762 Z M 667.452 19.762 Q 670.152 20.462 672.802 20.662 Q 675.452 20.862 678.052 20.662 Q 678.752 20.662 679.402 20.462 A 0.832 0.832 0 0 0 679.956 19.911 Q 680.052 19.645 680.052 19.262 Q 680.106 18.661 679.922 18.358 A 0.623 0.623 0 0 0 679.452 18.062 Q 678.752 17.962 678.052 17.962 Q 676.252 17.862 674.452 17.812 A 133.274 133.274 0 0 0 670.767 17.762 A 91.783 91.783 0 0 0 670.752 17.762 A 4.876 4.876 0 0 0 669.135 18.044 A 5.606 5.606 0 0 0 668.952 18.112 A 2.143 2.143 0 0 0 668.198 18.624 Q 667.95 18.877 667.733 19.231 A 5.149 5.149 0 0 0 667.452 19.762 Z M 234.452 19.662 Q 235.652 19.762 236.402 19.362 Q 237.152 18.962 237.852 18.562 Q 238.738 17.971 239.963 17.526 A 13.509 13.509 0 0 1 240.002 17.512 A 2.853 2.853 0 0 0 240.541 17.257 Q 240.836 17.074 241.008 16.838 A 1.282 1.282 0 0 0 241.252 16.062 A 1.821 1.821 0 0 0 240.659 14.712 Q 240.408 14.469 240.052 14.262 Q 238.852 13.562 237.852 12.862 Q 237.152 12.362 236.352 12.062 Q 235.693 11.815 235.035 12.381 A 2.983 2.983 0 0 0 234.752 12.662 Q 233.752 13.662 232.802 14.712 Q 231.852 15.762 231.052 16.862 Q 229.972 18.138 231.494 18.643 A 3.444 3.444 0 0 0 231.552 18.662 Q 232.352 18.962 233.152 19.212 Q 233.952 19.462 234.452 19.662 Z M 474.452 19.662 Q 475.652 19.762 476.402 19.362 Q 477.152 18.962 477.852 18.562 Q 478.738 17.971 479.963 17.526 A 13.509 13.509 0 0 1 480.002 17.512 A 2.853 2.853 0 0 0 480.541 17.257 Q 480.836 17.074 481.008 16.838 A 1.282 1.282 0 0 0 481.252 16.062 A 1.821 1.821 0 0 0 480.659 14.712 Q 480.408 14.469 480.052 14.262 Q 478.852 13.562 477.852 12.862 Q 477.152 12.362 476.352 12.062 Q 475.693 11.815 475.035 12.381 A 2.983 2.983 0 0 0 474.752 12.662 Q 473.752 13.662 472.802 14.712 Q 471.852 15.762 471.052 16.862 Q 469.972 18.138 471.494 18.643 A 3.444 3.444 0 0 0 471.552 18.662 Q 472.352 18.962 473.152 19.212 Q 473.952 19.462 474.452 19.662 Z M 9.452 5.662 A 5.8 5.8 0 0 0 9.748 5.72 Q 11.243 5.971 11.152 5.012 Q 11.059 4.035 11.139 3.189 A 7.73 7.73 0 0 1 11.152 3.062 Q 11.252 2.362 11.152 1.662 A 0.637 0.637 0 0 0 11.038 1.366 Q 10.792 1.035 10.058 1.144 A 3.277 3.277 0 0 0 9.952 1.162 Q 8.052 1.262 6.302 1.862 Q 4.552 2.462 3.152 3.762 A 2.421 2.421 0 0 0 2.402 4.944 A 3.294 3.294 0 0 0 2.302 5.412 A 4.019 4.019 0 0 0 2.263 5.848 Q 2.246 6.36 2.375 6.807 A 2.662 2.662 0 0 0 2.552 7.262 A 0.541 0.541 0 0 0 2.635 7.407 Q 2.856 7.674 3.377 7.403 A 2.227 2.227 0 0 0 3.452 7.362 A 5.156 5.156 0 0 1 4.004 7.086 Q 4.396 6.921 4.752 6.862 A 30.266 30.266 0 0 0 6.715 6.435 A 33.189 33.189 0 0 0 7.002 6.362 A 54.699 54.699 0 0 0 8.498 5.948 A 66.876 66.876 0 0 0 9.452 5.662 Z M 818.652 14.162 A 5.253 5.253 0 0 0 818.248 14.176 Q 817.586 14.227 817.352 14.462 Q 816.652 15.462 815.902 16.362 Q 815.152 17.262 814.352 18.262 Q 814.088 18.613 814.597 18.888 A 1.924 1.924 0 0 0 814.752 18.962 L 817.152 19.762 Q 818.352 20.162 819.452 20.662 A 1.258 1.258 0 0 0 819.852 20.728 Q 820.252 20.728 820.652 20.462 Q 821.552 19.562 822.452 18.712 Q 823.352 17.862 824.252 16.962 A 1.775 1.775 0 0 0 824.388 16.855 Q 824.875 16.429 824.252 16.162 Q 822.952 15.462 821.502 14.912 A 13.898 13.898 0 0 0 819.443 14.302 A 12.16 12.16 0 0 0 818.652 14.162 Z M 293.152 23.162 L 293.152 22.162 L 287.352 21.762 L 281.552 21.362 L 281.552 22.562 Q 284.452 23.062 287.352 23.362 Q 290.252 23.662 293.152 23.162 Z M 679.152 23.162 L 679.152 22.162 L 673.352 21.762 L 667.552 21.362 L 667.552 22.562 Q 670.452 23.062 673.352 23.362 Q 676.252 23.662 679.152 23.162 Z M 218.874 19.869 A 9.568 9.568 0 0 0 217.252 18.762 Q 219.652 18.562 222.002 18.462 A 18.39 18.39 0 0 1 222.784 18.445 A 18.157 18.157 0 0 1 226.652 18.862 A 5.123 5.123 0 0 1 226.798 18.901 Q 229.002 19.521 227.452 21.362 Q 226.252 22.662 224.502 22.812 A 4.232 4.232 0 0 1 224.14 22.827 Q 223.187 22.827 222.249 22.394 A 6.371 6.371 0 0 1 221.052 21.662 Q 220.052 20.962 219.202 20.162 A 8.7 8.7 0 0 0 218.874 19.869 Z M 458.874 19.869 A 9.568 9.568 0 0 0 457.252 18.762 Q 459.652 18.562 462.002 18.462 A 18.39 18.39 0 0 1 462.784 18.445 A 18.157 18.157 0 0 1 466.652 18.862 A 5.123 5.123 0 0 1 466.798 18.901 Q 469.002 19.521 467.452 21.362 Q 466.252 22.662 464.502 22.812 A 4.232 4.232 0 0 1 464.14 22.827 Q 463.187 22.827 462.249 22.394 A 6.371 6.371 0 0 1 461.052 21.662 Q 460.052 20.962 459.202 20.162 A 8.7 8.7 0 0 0 458.874 19.869 Z M 778.652 66.362 Q 777.352 66.262 776.102 66.162 Q 774.852 66.062 773.752 65.962 Q 773.252 65.962 772.752 66.012 A 0.973 0.973 0 0 0 772.082 66.377 A 1.463 1.463 0 0 0 771.952 66.562 Q 771.252 67.662 770.602 68.812 Q 769.952 69.962 769.352 71.162 Q 769.068 71.918 769.679 71.959 A 1.09 1.09 0 0 0 769.752 71.962 Q 771.452 71.862 773.202 71.662 A 3.843 3.843 0 0 0 775.517 70.518 A 5.634 5.634 0 0 0 776.152 69.762 A 57.447 57.447 0 0 0 777.019 68.627 Q 777.398 68.119 777.806 67.553 A 106.403 106.403 0 0 0 778.652 66.362 Z M 2.652 12.662 Q 2.952 14.962 3.152 15.862 Q 3.247 16.288 3.431 16.523 A 0.714 0.714 0 0 0 3.952 16.812 Q 4.471 16.855 5.589 16.711 A 26.381 26.381 0 0 0 5.952 16.662 Q 7.34 16.417 7.595 15.172 A 3.046 3.046 0 0 0 7.652 14.562 A 13.174 13.174 0 0 0 7.685 13.623 A 13.974 13.974 0 0 0 7.552 11.712 Q 7.352 10.262 7.152 8.862 Q 7.152 8.462 7.052 8.062 A 0.453 0.453 0 0 0 6.783 7.752 Q 6.598 7.667 6.294 7.662 A 2.356 2.356 0 0 0 6.252 7.662 Q 1.952 7.462 2.552 11.762 A 3.135 3.135 0 0 0 2.567 12.079 A 2.454 2.454 0 0 0 2.602 12.312 Q 2.65 12.553 2.652 12.654 A 0.434 0.434 0 0 1 2.652 12.662 Z M 587.752 7.662 L 589.352 7.462 L 590.952 7.262 A 3.095 3.095 0 0 0 592.422 6.617 Q 592.966 6.196 593.452 5.512 Q 594.552 3.962 594.552 2.462 Q 594.552 1.462 594.052 1.462 Q 592.752 1.362 591.402 1.212 Q 590.052 1.062 588.952 1.762 A 3.211 3.211 0 0 0 587.81 3.046 A 4.72 4.72 0 0 0 587.452 4.012 Q 587.052 5.562 586.652 6.962 A 1.588 1.588 0 0 0 586.638 7.063 Q 586.587 7.569 586.95 7.661 A 0.629 0.629 0 0 0 586.952 7.662 Q 587.352 7.762 587.752 7.662 Z M 623.752 7.662 L 625.352 7.462 L 626.952 7.262 A 3.095 3.095 0 0 0 628.422 6.617 Q 628.966 6.196 629.452 5.512 Q 630.552 3.962 630.552 2.462 Q 630.552 1.462 630.052 1.462 Q 628.752 1.362 627.402 1.212 Q 626.052 1.062 624.952 1.762 A 3.211 3.211 0 0 0 623.81 3.046 A 4.72 4.72 0 0 0 623.452 4.012 Q 623.052 5.562 622.652 6.962 A 1.588 1.588 0 0 0 622.638 7.063 Q 622.587 7.569 622.95 7.661 A 0.629 0.629 0 0 0 622.952 7.662 Q 623.352 7.762 623.752 7.662 Z M 12.152 8.962 Q 12.052 8.162 11.952 7.462 Q 11.852 6.762 10.452 6.862 A 3.795 3.795 0 0 0 9.936 6.934 Q 9.376 7.056 9.124 7.346 A 0.815 0.815 0 0 0 8.952 7.662 Q 8.768 8.303 8.837 9.113 A 5.754 5.754 0 0 0 8.852 9.262 Q 8.952 10.562 9.052 11.912 Q 9.152 13.262 9.152 14.662 Q 9.252 15.562 9.702 15.762 A 2.077 2.077 0 0 0 10.109 15.891 Q 10.436 15.962 10.852 15.962 A 3.47 3.47 0 0 0 11.318 15.932 Q 11.792 15.868 12.102 15.662 Q 12.552 15.362 12.452 14.362 Q 12.352 12.962 12.302 11.612 Q 12.252 10.262 12.152 8.962 Z M 2.252 24.162 Q 3.952 23.762 5.452 23.512 Q 6.952 23.262 8.452 22.862 Q 9.552 22.662 9.902 21.762 A 3.595 3.595 0 0 0 10.054 21.276 Q 10.194 20.676 10.056 20.178 A 1.812 1.812 0 0 0 10.052 20.162 A 1.293 1.293 0 0 0 9.963 19.909 Q 9.718 19.406 9.102 19.612 L 7.752 20.062 A 76.871 76.871 0 0 1 6.04 20.723 A 70.013 70.013 0 0 1 5.802 20.812 A 18.506 18.506 0 0 0 4.38 21.407 A 21.487 21.487 0 0 0 3.852 21.662 Q 3.152 21.962 2.652 22.462 A 1.264 1.264 0 0 0 2.362 22.934 Q 2.189 23.411 2.252 24.162 Z M 728.452 11.962 A 3.809 3.809 0 0 0 728.411 12.23 Q 728.271 13.454 729.16 13.718 A 1.602 1.602 0 0 0 729.352 13.762 Q 732.952 14.562 734.052 10.262 Q 734.352 9.162 733.352 8.962 A 7.184 7.184 0 0 0 732.629 8.818 Q 729.343 8.347 728.49 11.801 A 7.906 7.906 0 0 0 728.452 11.962 Z M 793.652 15.962 Q 793.452 15.562 793.002 15.512 A 6.672 6.672 0 0 1 792.361 15.41 A 5.804 5.804 0 0 1 792.152 15.362 Q 791.452 15.362 790.302 16.012 Q 789.152 16.662 788.202 17.462 A 9.317 9.317 0 0 0 787.719 17.896 Q 787.27 18.331 787.043 18.698 A 2.105 2.105 0 0 0 786.952 18.862 Q 786.852 19.262 787.152 19.462 A 3.471 3.471 0 0 0 787.843 19.864 Q 789.414 20.536 791.052 19.062 Q 791.452 18.662 791.802 18.362 A 4.269 4.269 0 0 0 792.338 17.808 A 4.863 4.863 0 0 0 792.452 17.662 A 4.013 4.013 0 0 0 792.94 17.074 A 3.509 3.509 0 0 0 793.102 16.812 Q 793.352 16.362 793.652 15.962 Z M 48.312 18.509 A 1.241 1.241 0 0 0 47.602 19.012 Q 47.21 19.578 47.083 21.547 A 25.546 25.546 0 0 0 47.052 22.162 A 3.449 3.449 0 0 0 47.073 22.563 Q 47.124 22.995 47.295 23.226 A 0.646 0.646 0 0 0 47.502 23.412 A 1.384 1.384 0 0 0 47.928 23.561 Q 48.189 23.608 48.505 23.579 A 3.005 3.005 0 0 0 48.652 23.562 A 2.464 2.464 0 0 1 48.907 23.538 Q 49.445 23.518 49.852 23.762 A 0.964 0.964 0 0 0 50.034 23.82 Q 50.498 23.917 50.867 23.445 A 2.177 2.177 0 0 0 51.052 23.162 A 3.908 3.908 0 0 0 51.369 22.393 Q 51.589 21.665 51.652 20.662 Q 51.8 19.774 51.565 19.324 A 0.813 0.813 0 0 0 51.352 19.062 A 1.414 1.414 0 0 0 51.024 18.875 Q 50.465 18.638 49.307 18.492 A 17.731 17.731 0 0 0 49.052 18.462 Q 48.634 18.42 48.312 18.509 Z M 194.252 57.562 A 5.667 5.667 0 0 0 194.246 57.752 Q 194.222 59.766 195.752 59.862 A 3.548 3.548 0 0 0 197.739 59.243 A 4.916 4.916 0 0 0 198.352 58.762 A 4.136 4.136 0 0 0 199.082 57.897 A 3.049 3.049 0 0 0 199.552 56.262 A 3.306 3.306 0 0 0 199.537 55.94 Q 199.506 55.619 199.405 55.437 A 0.486 0.486 0 0 0 199.252 55.262 A 2.995 2.995 0 0 0 198.591 55.078 Q 197.935 54.978 197.302 55.212 Q 196.352 55.562 195.352 55.862 A 1.706 1.706 0 0 0 194.714 56.254 Q 194.252 56.719 194.252 57.562 Z M 434.252 57.562 A 5.667 5.667 0 0 0 434.246 57.752 Q 434.222 59.766 435.752 59.862 A 3.548 3.548 0 0 0 437.739 59.243 A 4.916 4.916 0 0 0 438.352 58.762 A 4.136 4.136 0 0 0 439.082 57.897 A 3.049 3.049 0 0 0 439.552 56.262 A 3.306 3.306 0 0 0 439.537 55.94 Q 439.506 55.619 439.405 55.437 A 0.486 0.486 0 0 0 439.252 55.262 A 2.995 2.995 0 0 0 438.591 55.078 Q 437.935 54.978 437.302 55.212 Q 436.352 55.562 435.352 55.862 A 1.706 1.706 0 0 0 434.714 56.254 Q 434.252 56.719 434.252 57.562 Z M 783.552 72.662 Q 783.352 72.962 783.152 73.362 A 0.548 0.548 0 0 0 783.135 73.495 Q 783.135 73.823 783.538 74.15 A 2.154 2.154 0 0 0 783.552 74.162 Q 784.352 75.062 785.202 75.962 Q 786.052 76.862 786.952 77.662 A 1.941 1.941 0 0 0 787.171 77.877 Q 787.736 78.347 788.302 77.903 A 1.517 1.517 0 0 0 788.352 77.862 Q 788.685 77.528 788.685 77.306 A 0.266 0.266 0 0 0 788.602 77.112 L 788.052 76.562 Q 787.152 75.762 786.202 74.912 Q 785.252 74.062 784.252 73.262 A 1.593 1.593 0 0 0 784.197 73.21 Q 784.068 73.093 783.716 72.799 A 79.072 79.072 0 0 0 783.552 72.662 Z M 790.352 75.562 A 0.563 0.563 0 0 0 790.295 75.341 Q 790.145 75.003 789.601 74.42 A 12.839 12.839 0 0 0 789.302 74.112 Q 788.252 73.062 787.102 72.112 Q 786.078 71.266 785.569 71.173 A 0.656 0.656 0 0 0 785.452 71.162 Q 785.152 71.162 785.052 71.312 A 1.531 1.531 0 0 1 784.971 71.421 Q 784.883 71.53 784.752 71.662 Q 784.552 71.962 784.952 72.362 Q 786.052 73.362 787.102 74.262 Q 788.152 75.162 789.152 76.162 A 1.036 1.036 0 0 0 789.288 76.277 Q 789.62 76.511 789.952 76.262 A 0.692 0.692 0 0 0 790.245 75.997 Q 790.322 75.869 790.343 75.7 A 1.1 1.1 0 0 0 790.352 75.562 Z M 786.552 79.262 L 786.702 79.112 L 786.852 78.962 Q 785.852 77.862 784.802 76.762 Q 783.752 75.662 782.652 74.562 A 0.695 0.695 0 0 0 782.563 74.463 Q 782.3 74.225 781.967 74.547 A 1.252 1.252 0 0 0 781.952 74.562 Q 781.752 74.762 781.602 74.962 A 0.309 0.309 0 0 0 781.538 75.151 Q 781.538 75.254 781.6 75.374 A 0.926 0.926 0 0 0 781.652 75.462 Q 782.752 76.662 784.002 77.562 Q 785.252 78.462 786.552 79.262 Z M 784.907 79.839 A 0.296 0.296 0 0 0 784.852 79.762 Q 783.852 78.862 782.852 77.912 Q 781.852 76.962 780.852 76.062 Q 780.681 75.891 780.365 76.012 A 1.247 1.247 0 0 0 780.252 76.062 A 1.475 1.475 0 0 0 780.208 76.157 Q 780.125 76.357 780.164 76.466 A 0.169 0.169 0 0 0 780.252 76.562 Q 781.152 77.562 782.152 78.512 Q 783.152 79.462 784.252 80.262 Q 784.724 80.545 784.929 80.114 A 0.915 0.915 0 0 0 784.952 80.062 Q 784.952 79.928 784.907 79.839 Z"
              vector-effect="non-scaling-stroke"/>
    </g>
</svg>